<?xml version="1.0" encoding="utf-8"?>
<!-- Generator: Adobe Illustrator 23.0.3, SVG Export Plug-In . SVG Version: 6.00 Build 0)  -->
<svg version="1.0" id="_x31_" xmlns="http://www.w3.org/2000/svg" xmlns:xlink="http://www.w3.org/1999/xlink" x="0px" y="0px"
	 viewBox="0 0 125 59" style="enable-background:new 0 0 125 59;" xml:space="preserve">
<style type="text/css">
	.st0{fill-rule:evenodd;clip-rule:evenodd;}
	.st1{fill-rule:evenodd;clip-rule:evenodd;fill:none;stroke:#AE4A84;stroke-width:0.8782;stroke-miterlimit:22.9256;}
	.st2{fill-rule:evenodd;clip-rule:evenodd;fill:#EF7F1A;}
	.st3{fill-rule:evenodd;clip-rule:evenodd;fill:#6BC43C;}
</style>
<path class="st0" d="M2.1,14.6l0.2,4.6c0.7-1.6,1.7-2.8,3-3.7c1.3-0.9,2.9-1.3,4.7-1.3c2,0,3.6,0.5,4.8,1.5c1.2,1,2.1,2.5,2.6,4.6
	c0.6-1.9,1.6-3.4,3-4.5c1.4-1.1,3.1-1.6,5.1-1.6c2.5,0,4.5,0.8,5.8,2.5c1.3,1.7,2,4.3,2,7.8v13.1H32V24.5c0-3.3-0.6-5.7-1.8-7.1
	c-1.2-1.4-2.8-2.1-4.8-2.1c-2.4,0-4.2,0.7-5.4,2.1c-2.1,2.3-2.3,4.3-2.3,7.1v13.1h-1.2V25.9c0-3,0.3-6.1-1.8-8.5
	c-1.2-1.3-2.8-2-4.7-2c-2.3,0-4.1,0.7-5.4,2c-1.2,1.4-2,3.1-2.4,5.3v15H1.1c0-7.7,0-15.4,0-23H2.1z"/>
<path class="st1" d="M99.9,1.7c2.5,0,4.5,2,4.5,4.5c0,2.5-2,4.5-4.5,4.5c-2.5,0-4.5-2-4.5-4.5C95.4,3.8,97.4,1.7,99.9,1.7z"/>
<rect x="99.3" y="14.6" class="st0" width="1.1" height="23"/>
<polygon class="st0" points="115.5,26 123.9,37.7 122.5,37.7 114.7,26.9 106.9,37.7 105.5,37.7 114,25.9 105.9,14.6 107.4,14.6 
	113.2,22.7 113.2,22.7 115.5,26 115.5,26 115.5,26 115.5,26 "/>
<polygon class="st2" points="117.3,21.3 122.1,14.6 123.5,14.6 118,22.3 117.8,22 117.3,21.3 117.3,21.3 "/>
<path class="st3" d="M45.8,24.9l7.3-10.2h1.5l-8.2,11.2h-1.1L37,14.7h1.4L45.8,24.9L45.8,24.9z M46.4,29.6v8.1h-1.1v-8.1H46.4z"/>
<path class="st0" d="M60.8,14.6l0.2,4.6c0.7-1.6,1.7-2.8,3-3.7c1.3-0.9,2.9-1.3,4.7-1.3c2,0,3.6,0.5,4.8,1.5c1.2,1,2.1,2.5,2.6,4.6
	c0.6-1.9,1.6-3.4,3-4.5c1.4-1.1,3.1-1.6,5.1-1.6c2.5,0,4.5,0.8,5.8,2.5c1.3,1.7,2,4.3,2,7.8v13.1h-1.2V24.5c0-3.3-0.6-5.7-1.8-7.1
	c-1.2-1.4-2.8-2.1-4.8-2.1c-2.4,0-4.2,0.7-5.4,2.1c-2.1,2.3-2.3,4.3-2.3,7.1v13.1h-1.2V25.9c0-3,0.3-6.1-1.8-8.5
	c-1.2-1.3-2.8-2-4.7-2c-2.3,0-4.1,0.7-5.4,2c-1.2,1.4-2,3.1-2.4,5.3v15h-1.2c0-7.7,0-15.4,0-23H60.8z"/>
<g>
	<path d="M1.3,48.8c0-0.9,0.3-1.7,0.8-2.3s1.2-0.9,2-0.9c0.8,0,1.5,0.3,2,0.9S7,47.9,7,48.8V49c0,0.9-0.3,1.7-0.8,2.3
		s-1.2,0.9-2,0.9c-0.9,0-1.5-0.3-2-0.9S1.3,49.9,1.3,49V48.8z M2,49c0,0.7,0.2,1.4,0.6,1.9s0.9,0.8,1.6,0.8c0.7,0,1.2-0.3,1.5-0.8
		s0.6-1.1,0.6-1.9v-0.2c0-0.7-0.2-1.3-0.6-1.8s-0.9-0.8-1.5-0.8S3,46.5,2.6,47S2,48.1,2,48.8V49z"/>
	<path d="M14.6,52.1h-0.7v-2.9h-3.4v2.9H9.8v-6.3h0.7v2.8h3.4v-2.8h0.7V52.1z"/>
	<path d="M22.7,45.7v6.3H22v-5.7h-2.7v2.2c0,1.2-0.1,2.1-0.4,2.7s-0.8,0.8-1.5,0.8h-0.3l0-0.6l0.2,0c0.4,0,0.7-0.2,0.9-0.6
		s0.3-1.2,0.3-2.3v-2.8H22.7z"/>
	<path d="M29.9,52.1c0-0.2-0.1-0.4-0.1-0.6s0-0.3,0-0.5c-0.2,0.3-0.5,0.6-0.9,0.9s-0.8,0.3-1.4,0.3c-0.6,0-1.1-0.2-1.4-0.5
		s-0.5-0.8-0.5-1.3s0.2-1,0.7-1.4s1.1-0.5,1.9-0.5h1.6v-0.8c0-0.5-0.1-0.8-0.4-1.1s-0.7-0.4-1.2-0.4c-0.5,0-0.9,0.1-1.2,0.4
		s-0.4,0.5-0.4,0.9h-0.7l0,0c0-0.5,0.2-0.9,0.6-1.3s1-0.5,1.7-0.5s1.3,0.2,1.7,0.5s0.6,0.9,0.6,1.5v3.1c0,0.2,0,0.4,0,0.7
		s0.1,0.4,0.1,0.6H29.9z M27.6,51.6c0.5,0,1-0.1,1.4-0.4s0.7-0.6,0.8-1V49h-1.6c-0.6,0-1,0.1-1.4,0.4s-0.6,0.6-0.6,1
		c0,0.4,0.1,0.6,0.4,0.9S27.1,51.6,27.6,51.6z"/>
	<path d="M37.8,45.7h0.7v6.3h-0.7v-5.2l0,0l-3.4,5.2h-0.7v-6.3h0.7v5.2l0,0L37.8,45.7z M37.8,43.2L37.8,43.2c0,0.5-0.1,0.8-0.4,1.1
		s-0.7,0.4-1.2,0.4s-0.9-0.1-1.2-0.4s-0.4-0.6-0.4-1.1l0,0H35c0,0.3,0.1,0.5,0.3,0.7s0.5,0.3,0.8,0.3c0.4,0,0.6-0.1,0.8-0.3
		s0.3-0.4,0.3-0.7H37.8z"/>
	<path d="M46.6,52.1h-0.7v-2.9h-3.4v2.9h-0.7v-6.3h0.7v2.8h3.4v-2.8h0.7V52.1z"/>
	<path d="M56.3,46.2c-0.5,0-0.8,0.1-1.2,0.4s-0.5,0.6-0.5,1.1h-0.6l0,0c0-0.6,0.2-1.1,0.7-1.5s1-0.6,1.7-0.6c0.8,0,1.5,0.3,2,0.9
		s0.7,1.4,0.7,2.3V49c0,0.9-0.2,1.7-0.7,2.3s-1.1,0.9-2,0.9c-0.7,0-1.2-0.2-1.7-0.6s-0.7-0.9-0.7-1.6l0,0h0.6c0,0.5,0.2,0.9,0.5,1.2
		s0.7,0.5,1.2,0.5c0.6,0,1.1-0.2,1.4-0.7s0.5-1,0.5-1.7l0,0h-2.8v-0.6h2.8l0,0c0-0.7-0.2-1.2-0.5-1.7S56.9,46.2,56.3,46.2z"/>
	<path d="M63.5,49.2h-0.8v2.9H62v-6.3h0.7v2.8h0.8l2.5-2.8h0.8l0,0l-2.7,3l3,3.2l0,0h-0.9L63.5,49.2z"/>
	<path d="M69.2,48.8c0-0.9,0.3-1.7,0.8-2.3s1.2-0.9,2-0.9c0.8,0,1.5,0.3,2,0.9s0.8,1.4,0.8,2.3V49c0,0.9-0.3,1.7-0.8,2.3
		s-1.2,0.9-2,0.9c-0.9,0-1.5-0.3-2-0.9s-0.8-1.4-0.8-2.3V48.8z M69.9,49c0,0.7,0.2,1.4,0.6,1.9s0.9,0.8,1.6,0.8
		c0.7,0,1.2-0.3,1.5-0.8s0.6-1.1,0.6-1.9v-0.2c0-0.7-0.2-1.3-0.6-1.8s-0.9-0.8-1.5-0.8s-1.2,0.3-1.5,0.8s-0.6,1.1-0.6,1.8V49z"/>
	<path d="M81.1,51.1L81.1,51.1l2.5-5.4h0.9v6.3h-0.7v-5.1l0,0l-2.4,5.1h-0.5l-2.4-5.2l0,0v5.2h-0.7v-6.3h0.9L81.1,51.1z"/>
	<path d="M91.8,52.1c0-0.2-0.1-0.4-0.1-0.6s0-0.3,0-0.5c-0.2,0.3-0.5,0.6-0.9,0.9s-0.8,0.3-1.4,0.3c-0.6,0-1.1-0.2-1.4-0.5
		s-0.5-0.8-0.5-1.3s0.2-1,0.7-1.4s1.1-0.5,1.9-0.5h1.6v-0.8c0-0.5-0.1-0.8-0.4-1.1s-0.7-0.4-1.2-0.4c-0.5,0-0.9,0.1-1.2,0.4
		s-0.4,0.5-0.4,0.9h-0.7l0,0c0-0.5,0.2-0.9,0.6-1.3s1-0.5,1.7-0.5s1.3,0.2,1.7,0.5s0.6,0.9,0.6,1.5v3.1c0,0.2,0,0.4,0,0.7
		s0.1,0.4,0.1,0.6H91.8z M89.5,51.6c0.5,0,1-0.1,1.4-0.4s0.7-0.6,0.8-1V49h-1.6c-0.6,0-1,0.1-1.4,0.4s-0.6,0.6-0.6,1
		c0,0.4,0.1,0.6,0.4,0.9S89.1,51.6,89.5,51.6z"/>
	<path d="M100.8,49.1c0,0.9-0.2,1.7-0.6,2.3s-1,0.8-1.8,0.8c-0.4,0-0.8-0.1-1.2-0.3s-0.6-0.4-0.8-0.7v3.3h-0.7v-8.8h0.5l0.1,1
		c0.2-0.4,0.5-0.6,0.8-0.8s0.7-0.3,1.2-0.3c0.8,0,1.4,0.3,1.8,0.9s0.6,1.4,0.6,2.4V49.1z M100.1,49c0-0.8-0.2-1.5-0.5-2
		s-0.8-0.8-1.4-0.8c-0.5,0-0.8,0.1-1.1,0.3s-0.5,0.5-0.7,0.9v3.1c0.2,0.3,0.4,0.6,0.7,0.8s0.7,0.3,1.1,0.3c0.6,0,1.1-0.2,1.4-0.7
		s0.5-1.1,0.5-1.8V49z"/>
	<path d="M105.3,49.2h-0.8v2.9h-0.7v-6.3h0.7v2.8h0.8l2.5-2.8h0.8l0,0l-2.7,3l3,3.2l0,0H108L105.3,49.2z"/>
	<path d="M113.8,52.2c-0.8,0-1.5-0.3-2-0.9S111,50,111,49.1v-0.3c0-0.9,0.3-1.7,0.8-2.3s1.2-0.9,1.9-0.9c0.8,0,1.4,0.2,1.8,0.7
		s0.6,1.2,0.6,2v0.5h-4.4v0.2c0,0.7,0.2,1.3,0.5,1.8s0.9,0.7,1.5,0.7c0.4,0,0.7-0.1,1.1-0.2s0.6-0.3,0.8-0.5l0.3,0.5
		c-0.2,0.2-0.5,0.4-0.9,0.6S114.3,52.2,113.8,52.2z M113.7,46.2c-0.5,0-1,0.2-1.3,0.6s-0.6,0.9-0.6,1.5l0,0h3.6v-0.1
		c0-0.6-0.1-1-0.4-1.4S114.3,46.2,113.7,46.2z"/>
	<path d="M123.6,46.3h-2.3v5.7h-0.7v-5.7h-2.2v-0.6h5.2V46.3z"/>
</g>
</svg>
