<?xml version="1.0" encoding="utf-8"?>
<!-- Generator: Adobe Illustrator 23.0.3, SVG Export Plug-In . SVG Version: 6.00 Build 0)  -->
<svg version="1.0" id="Слой_1" xmlns="http://www.w3.org/2000/svg" xmlns:xlink="http://www.w3.org/1999/xlink" x="0px" y="0px"
	 viewBox="0 0 129 86" style="enable-background:new 0 0 129 86;" xml:space="preserve">
<style type="text/css">
	.st0{fill:none;}
	.st1{fill:#FB873E;}
	.st2{clip-path:url(#SVGID_11_);}
	.st3{clip-path:url(#SVGID_12_);}
	.st4{clip-path:url(#SVGID_13_);}
	.st5{clip-path:url(#SVGID_14_);}
	.st6{display:none;}
	.st7{display:inline;}
	.st8{clip-path:url(#SVGID_15_);}
	.st9{fill:#A59F9B;}
	.st10{fill:#D78048;stroke:#D78048;stroke-width:0.75;stroke-miterlimit:10;}
	.st11{fill:none;stroke:#D78048;stroke-width:0.75;stroke-miterlimit:10;}
	.st12{clip-path:url(#SVGID_16_);}
	.st13{clip-path:url(#SVGID_17_);}
	.st14{clip-path:url(#SVGID_18_);}
	.st15{clip-path:url(#SVGID_19_);}
	.st16{clip-path:url(#SVGID_20_);}
	.st17{fill-opacity:0;stroke:#000000;stroke-opacity:0;}
	.st18{fill:#231F20;}
	.st19{fill:#FFFFFF;}
	.st20{fill:none;stroke:#D78048;stroke-miterlimit:10;}
	.st21{fill:none;stroke:#000000;stroke-miterlimit:10;}
	.st22{fill:none;stroke:#07080A;stroke-miterlimit:10;}
	.st23{fill:#FFFFFF;stroke:#07080A;stroke-miterlimit:10;}
	.st24{fill:none;stroke:#FFFFFF;stroke-miterlimit:10;}
</style>
<rect x="0.1" y="-0.3" class="st0" width="129" height="86"/>
<circle class="st1" cx="107.5" cy="64.5" r="17"/>
<g>
	<g>
		<g>
			<defs>
				<rect id="SVGID_5_" x="48" y="46.6" width="35" height="35"/>
			</defs>
			<clipPath id="SVGID_11_">
				<use xlink:href="#SVGID_5_"  style="overflow:visible;"/>
			</clipPath>
			<path class="st2" d="M62,54.9c0-0.6,0.5-1.2,1.2-1.2s1.2,0.5,1.2,1.2c0,0.6-0.5,1.2-1.2,1.2C62.5,56.1,62,55.5,62,54.9z M65,54.9
				c0-1-0.8-1.8-1.8-1.8c-1,0-1.8,0.8-1.8,1.8c0,1,0.8,1.8,1.8,1.8C64.1,56.7,65,55.9,65,54.9z"/>
		</g>
	</g>
	<g>
		<g>
			<defs>
				<rect id="SVGID_4_" x="48" y="46.6" width="35" height="35"/>
			</defs>
			<clipPath id="SVGID_12_">
				<use xlink:href="#SVGID_4_"  style="overflow:visible;"/>
			</clipPath>
			<path class="st3" d="M60.5,54.9c0-1.5,1.2-2.7,2.7-2.7c1.5,0,2.7,1.2,2.7,2.7c0,1.1-1.7,3.4-2.7,4.5
				C62.2,58.4,60.5,56.1,60.5,54.9z M63.4,60.2c0.3-0.4,3.1-3.5,3.1-5.3c0-1.8-1.5-3.3-3.3-3.3c-1.8,0-3.3,1.5-3.3,3.3
				c0,1.7,2.8,4.9,3.1,5.3l0.3,0.3L63.4,60.2z"/>
		</g>
	</g>
	<g>
		<g>
			<defs>
				<rect id="SVGID_3_" x="48" y="46.6" width="35" height="35"/>
			</defs>
			<clipPath id="SVGID_13_">
				<use xlink:href="#SVGID_3_"  style="overflow:visible;"/>
			</clipPath>
			<rect x="51.1" y="70.9" class="st4" width="3.3" height="0.7"/>
		</g>
	</g>
	<g>
		<g>
			<defs>
				<rect id="SVGID_2_" x="48" y="46.6" width="35" height="35"/>
			</defs>
			<clipPath id="SVGID_14_">
				<use xlink:href="#SVGID_2_"  style="overflow:visible;"/>
			</clipPath>
			<rect x="49.3" y="70.9" class="st5" width="1.1" height="0.7"/>
		</g>
	</g>
	<g class="st6">
		<g class="st7">
			<defs>
				<rect id="SVGID_1_" x="48" y="46.6" width="35" height="35"/>
			</defs>
			<clipPath id="SVGID_15_">
				<use xlink:href="#SVGID_1_"  style="overflow:visible;"/>
			</clipPath>
			<rect x="52.4" y="72.8" class="st8" width="2" height="0.7"/>
		</g>
	</g>
	<g>
		<circle class="st9" cx="21.5" cy="64.5" r="17"/>
		<path class="st10" d="M58.1,65.4c-0.3,0.5-0.6,1.1-0.8,2l-2.6-2h2.7H58.1z M59.3,63.2h7c0.7,0,1.3,0.6,1.3,1.3
			c0,0.1-0.1,0.1-0.1,0.1h-8.2c-0.4,0-0.7-0.3-0.7-0.7C58.6,63.5,58.9,63.2,59.3,63.2z M67.9,72h-1.2v-1.7c0-1.9-1.8-3.5-4.1-3.5
			h-1.3c-1.3,0-2.4,0.3-3.4,0.9c0.2-1.1,0.7-2,1-2.5H67c-0.3,1-0.6,2.7-0.1,4.5C67.1,70.6,67.4,71.4,67.9,72z M71.6,71.5
			c0,0.2-0.1,0.3-0.1,0.5h-2.8c-0.1-0.2-0.2-0.3-0.3-0.5H71.6L71.6,71.5z M76.9,68.2c1.3,0,2.5,0.5,3.4,1.4c0.1,0.1,0.1,0.1,0.2,0.2
			c-2.3,0.2-4.3,1.2-5.5,2c-1.2,0.8-1.9,1.6-2.2,1.9h-4.8c-0.7,0-1.3-0.5-1.4-1.1h2.6l0,0h2.8l0-0.3C72.4,70,74.5,68.2,76.9,68.2z
			 M72.7,63.1l0.8-2.4h0.8l2.8,6.8c-0.1,0-0.1,0-0.2,0c-1.2,0-2.3,0.4-3.3,1.1L72.7,63.1z M72.8,60v-0.7c0-0.4,0.3-0.7,0.7-0.7h1.7
			v1.5h-1.7L72.8,60C72.8,60.1,72.8,60,72.8,60z M76,58.9c0.2,0,0.4,0.2,0.4,0.4v0c0,0.2-0.2,0.4-0.4,0.4h-0.1L76,58.9L76,58.9
			L76,58.9z M76.4,72.1l0.5,0.9l0.6-0.3L77,71.8c0.1,0,0.1,0,0.2,0c0.6,0,1.1,0.5,1.1,1.1s-0.5,1.1-1.1,1.1s-1.1-0.5-1.1-1.1
			C76.1,72.6,76.2,72.3,76.4,72.1z M80.2,72.9c0,1.7-1.4,3-3,3c-1.4,0-2.7-1-3-2.4c0.3-0.3,0.8-0.7,1.3-1c0,0.1,0,0.3,0,0.4
			c0,1,0.8,1.7,1.7,1.7s1.7-0.8,1.7-1.7c0-0.8-0.5-1.4-1.2-1.6c0.5-0.2,1-0.4,1.6-0.5C79.9,71.3,80.2,72.1,80.2,72.9z M65.8,74.1H64
			c0.1-0.3,0.2-0.6,0.2-0.9h2c0.1,0.2,0.2,0.4,0.3,0.5L65.8,74.1z M60.5,76c-1.6,0-2.9-1.2-3-2.7h1.3c0.2,0.8,0.9,1.4,1.7,1.4
			c0.8,0,1.6-0.6,1.7-1.4h1.3c0,0.3-0.1,0.6-0.2,0.9h-1.2v0.7h0.8C62.3,75.5,61.4,76,60.5,76z M61.5,73.3c-0.1,0.4-0.5,0.7-1,0.7
			c-0.5,0-0.9-0.3-1-0.7H61.5z M57.5,72.6c0.2-1.5,1.5-2.7,3-2.7c1.6,0,2.9,1.2,3,2.7H57.5z M56.2,71.9c0-2.4,2.3-4.3,5.1-4.3h1.3
			c1.9,0,3.4,1.3,3.4,2.8V72v0.3v0.2h-1.8c-0.2-1.9-1.8-3.4-3.7-3.4c-1.9,0-3.5,1.5-3.7,3.4h-0.6V71.9L56.2,71.9z M51.6,64.7v-5.1
			h5.1v5.1H51.6L51.6,64.7z M50.9,58.9v6.5h0.7h1.9l3.6,2.7c0,0.1,0,0.2,0,0.3c-1,0.9-1.7,2.1-1.7,3.5v1.4h1.2
			c0.1,1.1,0.7,2.1,1.6,2.7l0.2,0.1l0.3,0.2l1.2,0.2l1-0.1l1.5-0.4c0.4-0.3,0.8-0.7,1.1-1.2H66l1.1-0.6c0.3,0.2,0.6,0.3,1,0.3h4.9
			h0.2l0.1-0.1c0,0,0.1-0.1,0.3-0.4c0.3,0.8,0.8,1.5,1.5,2l0,0c0,0,1.6,0.5,2.1,0.5c0.5,0,1.9-0.4,1.9-0.5c1.1-0.5,1.7-1.8,1.7-3.1
			c0-0.8-0.3-1.6-0.8-2.3c0.4,0,0.7-0.1,1.1-0.1c0.3,0,0.4-0.2,0.4-0.3c0.1-0.3-0.2-0.5-0.6-0.9c-0.1-0.1-0.2-0.2-0.2-0.2
			c-0.8-0.8-1.9-1.4-3-1.5l-2.8-6.9h0.8v-0.3H76c0.6,0,1.1-0.5,1.1-1.1v0c0-0.6-0.5-1.1-1.1-1.1h-0.1v-0.3h-2.4
			c-0.8,0-1.4,0.6-1.4,1.4V60c0,0,0,0.1,0,0.1h-0.4l-1.5-1.5h-1.7v0.7H70l1.5,1.5h1.4L72,63.1l1,6.1c-0.5,0.5-0.9,1.1-1.2,1.7H68
			c-0.2-0.4-0.3-0.8-0.4-1.2c-0.5-1.8-0.1-3.4,0.2-4.3c0.4-0.1,0.6-0.4,0.6-0.8c0-1.1-0.9-2-2-2h-7c-0.8,0-1.4,0.6-1.4,1.4
			c0,0.3,0.1,0.5,0.2,0.7h-0.6v-5.8L50.9,58.9L50.9,58.9z"/>
	</g>
	<circle class="st11" cx="60.5" cy="73.1" r="3.5"/>
	<path class="st11" d="M73.6,73.4c0,0.2,0.1,0.6,0.3,1c0.5,1.1,1.7,2.2,3.3,2.2c1.9,0,3.5-1.6,3.5-3.5c0-1-0.5-2-1.2-2.6"/>
</g>
<g>
	<g>
		<g>
			<defs>
				<rect id="SVGID_10_" x="4.7" y="46.6" width="35" height="35"/>
			</defs>
			<clipPath id="SVGID_16_">
				<use xlink:href="#SVGID_10_"  style="overflow:visible;"/>
			</clipPath>
			<path class="st12" d="M18.6,54.9c0-0.6,0.5-1.2,1.2-1.2c0.6,0,1.2,0.5,1.2,1.2c0,0.6-0.5,1.2-1.2,1.2
				C19.2,56.1,18.6,55.5,18.6,54.9z M21.6,54.9c0-1-0.8-1.8-1.8-1.8c-1,0-1.8,0.8-1.8,1.8c0,1,0.8,1.8,1.8,1.8
				C20.8,56.7,21.6,55.9,21.6,54.9z"/>
		</g>
	</g>
	<g>
		<g>
			<defs>
				<rect id="SVGID_9_" x="4.7" y="46.6" width="35" height="35"/>
			</defs>
			<clipPath id="SVGID_17_">
				<use xlink:href="#SVGID_9_"  style="overflow:visible;"/>
			</clipPath>
			<path class="st13" d="M17.1,54.9c0-1.5,1.2-2.7,2.7-2.7s2.7,1.2,2.7,2.7c0,1.1-1.7,3.4-2.7,4.5C18.9,58.4,17.1,56.1,17.1,54.9z
				 M20,60.2c0.3-0.4,3.1-3.5,3.1-5.3c0-1.8-1.5-3.3-3.3-3.3c-1.8,0-3.3,1.5-3.3,3.3c0,1.7,2.8,4.9,3.1,5.3l0.3,0.3L20,60.2z"/>
		</g>
	</g>
	<g>
		<g>
			<defs>
				<rect id="SVGID_8_" x="4.7" y="46.6" width="35" height="35"/>
			</defs>
			<clipPath id="SVGID_18_">
				<use xlink:href="#SVGID_8_"  style="overflow:visible;"/>
			</clipPath>
			<rect x="7.8" y="70.9" class="st14" width="3.3" height="0.7"/>
		</g>
	</g>
	<g>
		<g>
			<defs>
				<rect id="SVGID_7_" x="4.7" y="46.6" width="35" height="35"/>
			</defs>
			<clipPath id="SVGID_19_">
				<use xlink:href="#SVGID_7_"  style="overflow:visible;"/>
			</clipPath>
			<rect x="5.9" y="70.9" class="st15" width="1.1" height="0.7"/>
		</g>
	</g>
	<g>
		<g>
			<defs>
				<rect id="SVGID_6_" x="4.7" y="46.6" width="35" height="35"/>
			</defs>
			<clipPath id="SVGID_20_">
				<use xlink:href="#SVGID_6_"  style="overflow:visible;"/>
			</clipPath>
			<rect x="9.1" y="72.8" class="st16" width="2" height="0.7"/>
		</g>
	</g>
	<g>
		<path class="st10" d="M14.8,65.4c-0.3,0.5-0.6,1.1-0.8,2l-2.6-2h2.7H14.8z M16,63.2h7c0.7,0,1.3,0.6,1.3,1.3
			c0,0.1-0.1,0.1-0.1,0.1H16c-0.4,0-0.7-0.3-0.7-0.7C15.2,63.5,15.6,63.2,16,63.2z M24.5,72h-1.2v-1.7c0-1.9-1.8-3.5-4.1-3.5H18
			c-1.3,0-2.4,0.3-3.4,0.9c0.2-1.1,0.7-2,1-2.5h8.1c-0.3,1-0.6,2.7-0.1,4.5C23.8,70.6,24.1,71.4,24.5,72z M28.3,71.5
			c0,0.2-0.1,0.3-0.1,0.5h-2.8c-0.1-0.2-0.2-0.3-0.3-0.5H28.3L28.3,71.5z M33.6,68.2c1.3,0,2.5,0.5,3.4,1.4c0.1,0.1,0.1,0.1,0.2,0.2
			c-2.3,0.2-4.3,1.2-5.5,2c-1.2,0.8-1.9,1.6-2.2,1.9h-4.8c-0.7,0-1.3-0.5-1.4-1.1h2.6l0,0h2.8l0-0.3C29.1,70,31.2,68.2,33.6,68.2z
			 M29.4,63.1l0.8-2.4H31l2.8,6.8c-0.1,0-0.1,0-0.2,0c-1.2,0-2.3,0.4-3.3,1.1L29.4,63.1z M29.5,60v-0.7c0-0.4,0.3-0.7,0.7-0.7h1.7
			v1.5h-1.7L29.5,60C29.5,60.1,29.5,60,29.5,60z M32.7,58.9c0.2,0,0.4,0.2,0.4,0.4v0c0,0.2-0.2,0.4-0.4,0.4h-0.1L32.7,58.9
			L32.7,58.9L32.7,58.9z M33.1,72.1l0.5,0.9l0.6-0.3l-0.5-0.9c0.1,0,0.1,0,0.2,0c0.6,0,1.1,0.5,1.1,1.1s-0.5,1.1-1.1,1.1
			c-0.6,0-1.1-0.5-1.1-1.1C32.8,72.6,32.9,72.3,33.1,72.1z M36.9,72.9c0,1.7-1.4,3-3,3c-1.4,0-2.7-1-3-2.4c0.3-0.3,0.8-0.7,1.3-1
			c0,0.1,0,0.3,0,0.4c0,1,0.8,1.7,1.7,1.7c1,0,1.7-0.8,1.7-1.7c0-0.8-0.5-1.4-1.2-1.6c0.5-0.2,1-0.4,1.6-0.5
			C36.6,71.3,36.9,72.1,36.9,72.9z M22.5,74.1h-1.8c0.1-0.3,0.2-0.6,0.2-0.9h2c0.1,0.2,0.2,0.4,0.3,0.5L22.5,74.1z M17.2,76
			c-1.6,0-2.9-1.2-3-2.7h1.3c0.2,0.8,0.9,1.4,1.7,1.4s1.6-0.6,1.7-1.4h1.3c0,0.3-0.1,0.6-0.2,0.9h-1.2v0.7h0.8
			C19,75.5,18.1,76,17.2,76z M18.2,73.3c-0.1,0.4-0.5,0.7-1,0.7c-0.5,0-0.9-0.3-1-0.7H18.2z M14.1,72.6c0.2-1.5,1.5-2.7,3-2.7
			c1.6,0,2.9,1.2,3,2.7H14.1z M12.9,71.9c0-2.4,2.3-4.3,5.1-4.3h1.3c1.9,0,3.4,1.3,3.4,2.8V72v0.3v0.2h-1.8
			c-0.2-1.9-1.8-3.4-3.7-3.4c-1.9,0-3.5,1.5-3.7,3.4h-0.6V71.9L12.9,71.9z M8.3,64.7v-5.1h5.1v5.1H8.3L8.3,64.7z M7.6,58.9v6.5h0.7
			h1.9l3.6,2.7c0,0.1,0,0.2,0,0.3c-1,0.9-1.7,2.1-1.7,3.5v1.4h1.2c0.1,1.1,0.7,2.1,1.6,2.7l0.2,0.1l0.3,0.2l1.2,0.2l1-0.1l1.5-0.4
			c0.4-0.3,0.8-0.7,1.1-1.2h2.3l1.1-0.6c0.3,0.2,0.6,0.3,1,0.3h4.9h0.2l0.1-0.1c0,0,0.1-0.1,0.3-0.4c0.3,0.8,0.8,1.5,1.5,2l0,0
			c0,0,1.6,0.5,2.1,0.5c0.5,0,1.9-0.4,1.9-0.5c1.1-0.5,1.7-1.8,1.7-3.1c0-0.8-0.3-1.6-0.8-2.3c0.4,0,0.7-0.1,1.1-0.1
			c0.3,0,0.4-0.2,0.4-0.3c0.1-0.3-0.2-0.5-0.6-0.9c-0.1-0.1-0.2-0.2-0.2-0.2c-0.8-0.8-1.9-1.4-3-1.5l-2.8-6.9h0.8v-0.3h0.1
			c0.6,0,1.1-0.5,1.1-1.1v0c0-0.6-0.5-1.1-1.1-1.1h-0.1v-0.3h-2.4c-0.8,0-1.4,0.6-1.4,1.4V60c0,0,0,0.1,0,0.1h-0.4l-1.5-1.5h-1.7
			v0.7h1.4l1.5,1.5h1.4l-0.8,2.3l1,6.1c-0.5,0.5-0.9,1.1-1.2,1.7h-3.9c-0.2-0.4-0.3-0.8-0.4-1.2c-0.5-1.8-0.1-3.4,0.2-4.3
			c0.4-0.1,0.6-0.4,0.6-0.8c0-1.1-0.9-2-2-2h-7c-0.8,0-1.4,0.6-1.4,1.4c0,0.3,0.1,0.5,0.2,0.7h-0.6v-5.8L7.6,58.9L7.6,58.9z"/>
	</g>
	<circle class="st11" cx="17.2" cy="73.1" r="3.5"/>
	<path class="st11" d="M30.3,73.4c0,0.2,0.1,0.6,0.3,1c0.5,1.1,1.7,2.2,3.3,2.2c1.9,0,3.5-1.6,3.5-3.5c0-1-0.5-2-1.2-2.6"/>
</g>
<g>
	<g>
		<g>
			<g>
				<path id="b7LQRbfVgH_1_" class="st1" d="M30.4,26.7L30.4,26.7l0,0.1l0,0.1l0,0.1l0,0.1l0,0.1l0,0.1l0,0.1l0,0.1l0,0.1l0,0.1
					l0,0.1l0,0.1l0,0.1l0,0.1l0,0.1l0,0.1l0,0.1l0,0.1l0,0.1l0,0.1l0,0.1l0,0.1l0,0.1l0,0.1l0,0.1l0,0.1l0,0.1l0,0.1l0,0.1l0,0.1
					l0,0.1l0,0l0,0l0,0l0,0l0,0l0,0l0,0l0,0l0,0l0,0l0,0l0,0l0,0l0,0l0,0l0,0l-0.1,0l-0.1,0l-0.1,0l-0.1,0l-0.1,0l-0.1,0l-0.1,0
					l-0.1,0l-0.1,0l-0.1,0l-0.1,0l-0.1,0l-0.1,0l-0.1,0l-0.1,0l-0.1,0l-0.1,0l-0.1,0l-0.1,0l-0.1,0l-0.1,0l-0.1,0l-0.1,0l-0.1,0
					l-0.1,0l-0.1,0l-0.1,0l-0.1,0l-0.1,0l-0.1,0l-0.1,0l-0.1,0h-9.6l-0.1,0l-0.1,0l-0.1,0l-0.1,0l-0.1,0l-0.1,0l-0.1,0l-0.1,0
					l-0.1,0l-0.1,0l-0.1,0l-0.1,0l-0.1,0l-0.1,0l-0.1,0l-0.1,0l-0.1,0l-0.1,0l-0.1,0l-0.1,0l-0.1,0l-0.1,0l-0.1,0l-0.1,0l-0.1,0
					l-0.1,0l-0.1,0l-0.1,0l-0.1,0l-0.1,0l-0.1,0l-0.1,0l0,0l0,0l0,0l0,0l0,0l0,0l0,0l0,0l0,0l0,0l0,0l0,0l0,0l0,0l0,0l0,0l0-0.1
					l0-0.1l0-0.1l0-0.1l0-0.1l0-0.1l0-0.1l0-0.1l0-0.1l0-0.1l0-0.1l0-0.1l0-0.1l0-0.1l0-0.1l0-0.1l0-0.1l0-0.1l0-0.1l0-0.1l0-0.1
					l0-0.1l0-0.1l0-0.1l0-0.1l0-0.1l0-0.1l0-0.1l0-0.1l0-0.1l0-0.1l0-0.1V16.1h16.1V26.7z M16.1,26.7L16.1,26.7L16.1,26.7L16.1,26.7
					l0,0.1l0,0l0,0l0,0l0,0l0,0l0,0l0,0l0,0l0,0l0,0l0,0l0,0l0,0l0,0l0,0l0,0l0,0l0,0l0,0l0,0l0,0l0,0l0,0l0,0l0,0l0,0l0,0l0,0l0,0
					l0,0l0,0l0,0l0,0l0,0l0,0l0,0l0,0l0,0l0,0l0,0l0,0l0,0l0,0l0,0l0,0l0,0l0,0l0,0l0,0l0,0l0,0l0,0l0,0l0,0l0,0l0,0l0,0l0,0l0,0
					l0,0l0,0l0,0l0,0l0,0l0,0l0,0l0,0l0,0l0,0l0,0l0,0l0,0l0,0l0,0l0,0h9.6l0,0l0,0l0,0l0,0l0,0l0,0l0,0l0,0l0,0l0,0l0,0l0,0l0,0
					l0,0l0,0l0,0l0,0l0,0l0,0l0,0l0,0l0,0l0,0l0,0l0,0l0,0l0,0l0,0l0,0l0,0l0,0l0,0l0,0l0,0l0,0l0,0l0,0l0,0l0,0l0,0l0,0l0,0l0,0
					l0,0l0,0l0,0l0,0l0,0l0,0l0,0l0,0l0,0l0,0l0,0l0,0l0,0l0,0l0,0l0,0l0,0l0,0l0,0l0,0l0,0l0,0l0,0l0,0l0,0l0,0l0,0l0,0l0,0l0,0
					l0,0l0,0l0,0l0,0l0,0l0,0l0,0v-8.8H16.1L16.1,26.7L16.1,26.7z"/>
			</g>
			<g>
				<g>
					<path class="st17" d="M30.4,26.7L30.4,26.7l0,0.1l0,0.1l0,0.1l0,0.1l0,0.1l0,0.1l0,0.1l0,0.1l0,0.1l0,0.1l0,0.1l0,0.1l0,0.1
						l0,0.1l0,0.1l0,0.1l0,0.1l0,0.1l0,0.1l0,0.1l0,0.1l0,0.1l0,0.1l0,0.1l0,0.1l0,0.1l0,0.1l0,0.1l0,0.1l0,0.1l0,0.1l0,0l0,0l0,0
						l0,0l0,0l0,0l0,0l0,0l0,0l0,0l0,0l0,0l0,0l0,0l0,0l0,0l-0.1,0l-0.1,0l-0.1,0l-0.1,0l-0.1,0l-0.1,0l-0.1,0l-0.1,0l-0.1,0l-0.1,0
						l-0.1,0l-0.1,0l-0.1,0l-0.1,0l-0.1,0l-0.1,0l-0.1,0l-0.1,0l-0.1,0l-0.1,0l-0.1,0l-0.1,0l-0.1,0l-0.1,0l-0.1,0l-0.1,0l-0.1,0
						l-0.1,0l-0.1,0l-0.1,0l-0.1,0l-0.1,0h-9.6l-0.1,0l-0.1,0l-0.1,0l-0.1,0l-0.1,0l-0.1,0l-0.1,0l-0.1,0l-0.1,0l-0.1,0l-0.1,0
						l-0.1,0l-0.1,0l-0.1,0l-0.1,0l-0.1,0l-0.1,0l-0.1,0l-0.1,0l-0.1,0l-0.1,0l-0.1,0l-0.1,0l-0.1,0l-0.1,0l-0.1,0l-0.1,0l-0.1,0
						l-0.1,0l-0.1,0l-0.1,0l-0.1,0l0,0l0,0l0,0l0,0l0,0l0,0l0,0l0,0l0,0l0,0l0,0l0,0l0,0l0,0l0,0l0,0l0-0.1l0-0.1l0-0.1l0-0.1l0-0.1
						l0-0.1l0-0.1l0-0.1l0-0.1l0-0.1l0-0.1l0-0.1l0-0.1l0-0.1l0-0.1l0-0.1l0-0.1l0-0.1l0-0.1l0-0.1l0-0.1l0-0.1l0-0.1l0-0.1l0-0.1
						l0-0.1l0-0.1l0-0.1l0-0.1l0-0.1l0-0.1l0-0.1V16.1h16.1V26.7z M16.1,26.7L16.1,26.7L16.1,26.7L16.1,26.7l0,0.1l0,0l0,0l0,0l0,0
						l0,0l0,0l0,0l0,0l0,0l0,0l0,0l0,0l0,0l0,0l0,0l0,0l0,0l0,0l0,0l0,0l0,0l0,0l0,0l0,0l0,0l0,0l0,0l0,0l0,0l0,0l0,0l0,0l0,0l0,0
						l0,0l0,0l0,0l0,0l0,0l0,0l0,0l0,0l0,0l0,0l0,0l0,0l0,0l0,0l0,0l0,0l0,0l0,0l0,0l0,0l0,0l0,0l0,0l0,0l0,0l0,0l0,0l0,0l0,0l0,0
						l0,0l0,0l0,0l0,0l0,0l0,0l0,0l0,0l0,0l0,0l0,0h9.6l0,0l0,0l0,0l0,0l0,0l0,0l0,0l0,0l0,0l0,0l0,0l0,0l0,0l0,0l0,0l0,0l0,0l0,0
						l0,0l0,0l0,0l0,0l0,0l0,0l0,0l0,0l0,0l0,0l0,0l0,0l0,0l0,0l0,0l0,0l0,0l0,0l0,0l0,0l0,0l0,0l0,0l0,0l0,0l0,0l0,0l0,0l0,0l0,0
						l0,0l0,0l0,0l0,0l0,0l0,0l0,0l0,0l0,0l0,0l0,0l0,0l0,0l0,0l0,0l0,0l0,0l0,0l0,0l0,0l0,0l0,0l0,0l0,0l0,0l0,0l0,0l0,0l0,0l0,0
						l0,0l0,0v-8.8H16.1L16.1,26.7L16.1,26.7z"/>
				</g>
			</g>
		</g>
		<g>
			<g>
				<path id="b40QuLcHsd_1_" class="st18" d="M25.2,19.2c0,0.5,0.4,0.9,0.9,0.9c0.5,0,0.9-0.4,0.9-0.9c0-0.3,0-2.9,0-3.2
					c-0.1-1.3-0.6-2.4-1.4-3.3c-0.8-0.9-2-1.4-3.2-1.4s-2.4,0.5-3.2,1.4c-0.8,0.8-1.4,2-1.4,3.3c0,0.3,0,2.9,0,3.2
					c0,0.5,0.4,0.9,0.9,0.9s0.9-0.4,0.9-0.9c0-0.3,0-2.8,0-3.1c0-0.8,0.4-1.6,0.9-2.1c0.5-0.5,1.2-0.8,1.9-0.8
					c0.7,0,1.4,0.3,1.9,0.8c0.5,0.5,0.9,1.3,0.9,2.1C25.2,16.7,25.2,18.6,25.2,19.2z"/>
			</g>
			<g>
				<g>
					<path class="st17" d="M25.2,19.2c0,0.5,0.4,0.9,0.9,0.9c0.5,0,0.9-0.4,0.9-0.9c0-0.3,0-2.9,0-3.2c-0.1-1.3-0.6-2.4-1.4-3.3
						c-0.8-0.9-2-1.4-3.2-1.4s-2.4,0.5-3.2,1.4c-0.8,0.8-1.4,2-1.4,3.3c0,0.3,0,2.9,0,3.2c0,0.5,0.4,0.9,0.9,0.9s0.9-0.4,0.9-0.9
						c0-0.3,0-2.8,0-3.1c0-0.8,0.4-1.6,0.9-2.1c0.5-0.5,1.2-0.8,1.9-0.8c0.7,0,1.4,0.3,1.9,0.8c0.5,0.5,0.9,1.3,0.9,2.1
						C25.2,16.7,25.2,18.6,25.2,19.2z"/>
				</g>
			</g>
		</g>
	</g>
</g>
<circle class="st1" cx="65" cy="21.5" r="17"/>
<g>
	<g>
		<g>
			<g>
				<path id="b7LQRbfVgH_2_" class="st19" d="M73.6,26.7L73.6,26.7l0,0.1l0,0.1l0,0.1l0,0.1l0,0.1l0,0.1l0,0.1l0,0.1l0,0.1l0,0.1
					l0,0.1l0,0.1l0,0.1l0,0.1l0,0.1l0,0.1l0,0.1l0,0.1l0,0.1l0,0.1l0,0.1l0,0.1l0,0.1l0,0.1l0,0.1l0,0.1l0,0.1l0,0.1l0,0.1l0,0.1
					l0,0.1l0,0l0,0l0,0l0,0l0,0l0,0l0,0l0,0l0,0l0,0l0,0l0,0l0,0l0,0l0,0l0,0l-0.1,0l-0.1,0l-0.1,0l-0.1,0l-0.1,0l-0.1,0l-0.1,0
					l-0.1,0l-0.1,0l-0.1,0l-0.1,0l-0.1,0l-0.1,0l-0.1,0l-0.1,0l-0.1,0l-0.1,0l-0.1,0l-0.1,0l-0.1,0l-0.1,0l-0.1,0l-0.1,0l-0.1,0
					l-0.1,0l-0.1,0l-0.1,0l-0.1,0l-0.1,0l-0.1,0l-0.1,0l-0.1,0h-9.6l-0.1,0l-0.1,0l-0.1,0l-0.1,0l-0.1,0l-0.1,0l-0.1,0l-0.1,0
					l-0.1,0l-0.1,0l-0.1,0l-0.1,0l-0.1,0l-0.1,0l-0.1,0l-0.1,0l-0.1,0l-0.1,0l-0.1,0l-0.1,0l-0.1,0l-0.1,0l-0.1,0l-0.1,0l-0.1,0
					l-0.1,0l-0.1,0l-0.1,0l-0.1,0l-0.1,0l-0.1,0l-0.1,0l0,0l0,0l0,0l0,0l0,0l0,0l0,0l0,0l0,0l0,0l0,0l0,0l0,0l0,0l0,0l0,0l0-0.1
					l0-0.1l0-0.1l0-0.1l0-0.1l0-0.1l0-0.1l0-0.1l0-0.1l0-0.1l0-0.1l0-0.1l0-0.1l0-0.1l0-0.1l0-0.1l0-0.1l0-0.1l0-0.1l0-0.1l0-0.1
					l0-0.1l0-0.1l0-0.1l0-0.1l0-0.1l0-0.1l0-0.1l0-0.1l0-0.1l0-0.1l0-0.1V16.1h16.1V26.7z M59.4,26.7L59.4,26.7L59.4,26.7L59.4,26.7
					l0,0.1l0,0l0,0l0,0l0,0l0,0l0,0l0,0l0,0l0,0l0,0l0,0l0,0l0,0l0,0l0,0l0,0l0,0l0,0l0,0l0,0l0,0l0,0l0,0l0,0l0,0l0,0l0,0l0,0l0,0
					l0,0l0,0l0,0l0,0l0,0l0,0l0,0l0,0l0,0l0,0l0,0l0,0l0,0l0,0l0,0l0,0l0,0l0,0l0,0l0,0l0,0l0,0l0,0l0,0l0,0l0,0l0,0l0,0l0,0l0,0
					l0,0l0,0l0,0l0,0l0,0l0,0l0,0l0,0l0,0l0,0l0,0l0,0l0,0l0,0l0,0l0,0h9.6l0,0l0,0l0,0l0,0l0,0l0,0l0,0l0,0l0,0l0,0l0,0l0,0l0,0
					l0,0l0,0l0,0l0,0l0,0l0,0l0,0l0,0l0,0l0,0l0,0l0,0l0,0l0,0l0,0l0,0l0,0l0,0l0,0l0,0l0,0l0,0l0,0l0,0l0,0l0,0l0,0l0,0l0,0l0,0
					l0,0l0,0l0,0l0,0l0,0l0,0l0,0l0,0l0,0l0,0l0,0l0,0l0,0l0,0l0,0l0,0l0,0l0,0l0,0l0,0l0,0l0,0l0,0l0,0l0,0l0,0l0,0l0,0l0,0l0,0
					l0,0l0,0l0,0l0,0l0,0l0,0l0,0v-8.8H59.4L59.4,26.7L59.4,26.7z"/>
			</g>
			<g>
				<g>
					<path class="st17" d="M73.6,26.7L73.6,26.7l0,0.1l0,0.1l0,0.1l0,0.1l0,0.1l0,0.1l0,0.1l0,0.1l0,0.1l0,0.1l0,0.1l0,0.1l0,0.1
						l0,0.1l0,0.1l0,0.1l0,0.1l0,0.1l0,0.1l0,0.1l0,0.1l0,0.1l0,0.1l0,0.1l0,0.1l0,0.1l0,0.1l0,0.1l0,0.1l0,0.1l0,0.1l0,0l0,0l0,0
						l0,0l0,0l0,0l0,0l0,0l0,0l0,0l0,0l0,0l0,0l0,0l0,0l0,0l-0.1,0l-0.1,0l-0.1,0l-0.1,0l-0.1,0l-0.1,0l-0.1,0l-0.1,0l-0.1,0l-0.1,0
						l-0.1,0l-0.1,0l-0.1,0l-0.1,0l-0.1,0l-0.1,0l-0.1,0l-0.1,0l-0.1,0l-0.1,0l-0.1,0l-0.1,0l-0.1,0l-0.1,0l-0.1,0l-0.1,0l-0.1,0
						l-0.1,0l-0.1,0l-0.1,0l-0.1,0l-0.1,0h-9.6l-0.1,0l-0.1,0l-0.1,0l-0.1,0l-0.1,0l-0.1,0l-0.1,0l-0.1,0l-0.1,0l-0.1,0l-0.1,0
						l-0.1,0l-0.1,0l-0.1,0l-0.1,0l-0.1,0l-0.1,0l-0.1,0l-0.1,0l-0.1,0l-0.1,0l-0.1,0l-0.1,0l-0.1,0l-0.1,0l-0.1,0l-0.1,0l-0.1,0
						l-0.1,0l-0.1,0l-0.1,0l-0.1,0l0,0l0,0l0,0l0,0l0,0l0,0l0,0l0,0l0,0l0,0l0,0l0,0l0,0l0,0l0,0l0,0l0-0.1l0-0.1l0-0.1l0-0.1l0-0.1
						l0-0.1l0-0.1l0-0.1l0-0.1l0-0.1l0-0.1l0-0.1l0-0.1l0-0.1l0-0.1l0-0.1l0-0.1l0-0.1l0-0.1l0-0.1l0-0.1l0-0.1l0-0.1l0-0.1l0-0.1
						l0-0.1l0-0.1l0-0.1l0-0.1l0-0.1l0-0.1l0-0.1V16.1h16.1V26.7z"/>
				</g>
			</g>
		</g>
		<g>
			<g>
				<path id="b40QuLcHsd_2_" class="st18" d="M68.4,19.2c0,0.5,0.4,0.9,0.9,0.9c0.5,0,0.9-0.4,0.9-0.9c0-0.3,0-2.9,0-3.2
					c-0.1-1.3-0.6-2.4-1.4-3.3c-0.8-0.9-2-1.4-3.2-1.4c-1.2,0-2.4,0.5-3.2,1.4c-0.8,0.8-1.4,2-1.4,3.3c0,0.3,0,2.9,0,3.2
					c0,0.5,0.4,0.9,0.9,0.9c0.5,0,0.9-0.4,0.9-0.9c0-0.3,0-2.8,0-3.1c0-0.8,0.4-1.6,0.9-2.1c0.5-0.5,1.2-0.8,1.9-0.8
					c0.7,0,1.4,0.3,1.9,0.8c0.5,0.5,0.9,1.3,0.9,2.1C68.4,16.7,68.4,18.6,68.4,19.2z"/>
			</g>
			<g>
				<g>
					<path class="st17" d="M68.4,19.2c0,0.5,0.4,0.9,0.9,0.9c0.5,0,0.9-0.4,0.9-0.9c0-0.3,0-2.9,0-3.2c-0.1-1.3-0.6-2.4-1.4-3.3
						c-0.8-0.9-2-1.4-3.2-1.4c-1.2,0-2.4,0.5-3.2,1.4c-0.8,0.8-1.4,2-1.4,3.3c0,0.3,0,2.9,0,3.2c0,0.5,0.4,0.9,0.9,0.9
						c0.5,0,0.9-0.4,0.9-0.9c0-0.3,0-2.8,0-3.1c0-0.8,0.4-1.6,0.9-2.1c0.5-0.5,1.2-0.8,1.9-0.8c0.7,0,1.4,0.3,1.9,0.8
						c0.5,0.5,0.9,1.3,0.9,2.1C68.4,16.7,68.4,18.6,68.4,19.2z"/>
				</g>
			</g>
		</g>
	</g>
</g>
<g>
	<path class="st20" d="M117,28.7H98.8c-0.9,0-1.7-0.8-1.7-1.7v-9.6c0-0.9,0.8-1.7,1.7-1.7H117c0.9,0,1.7,0.8,1.7,1.7V27
		C118.8,28,118,28.7,117,28.7z"/>
	<line class="st20" x1="98.5" y1="22.5" x2="116.6" y2="22.5"/>
	<line class="st20" x1="97.1" y1="18.1" x2="118.8" y2="18.1"/>
	<line class="st20" x1="97.1" y1="20.6" x2="118.8" y2="20.6"/>
	<line class="st21" x1="98.5" y1="24.6" x2="105.8" y2="24.6"/>
	<circle class="st22" cx="115.4" cy="25.7" r="1.8"/>
	<circle class="st23" cx="113.6" cy="25.7" r="1.8"/>
	<circle class="st23" cx="109.8" cy="15.7" r="4"/>
	<g>
		<line class="st21" x1="107.7" y1="15" x2="111.9" y2="15"/>
		<line class="st21" x1="107.7" y1="14" x2="111.9" y2="14"/>
	</g>
	<g>
		<line class="st21" x1="109.8" y1="14.8" x2="109.8" y2="18.5"/>
		<path class="st21" d="M110.8,18.5"/>
	</g>
	<line class="st21" x1="107.9" y1="7.7" x2="107.9" y2="10.5"/>
	<line class="st21" x1="111.9" y1="8.5" x2="111.9" y2="11.3"/>
	<line class="st21" x1="109.8" y1="9.3" x2="109.8" y2="10.9"/>
	<line class="st21" x1="109.8" y1="7.2" x2="109.8" y2="8.8"/>
</g>
<g>
	<path class="st24" d="M117,73H98.8c-0.9,0-1.7-0.8-1.7-1.7v-9.6c0-0.9,0.8-1.7,1.7-1.7H117c0.9,0,1.7,0.8,1.7,1.7v9.6
		C118.8,72.2,118,73,117,73z"/>
	<line class="st24" x1="98.5" y1="66.7" x2="116.6" y2="66.7"/>
	<line class="st24" x1="97.1" y1="62.4" x2="118.8" y2="62.4"/>
	<line class="st24" x1="97.1" y1="64.8" x2="118.8" y2="64.8"/>
	<line class="st24" x1="98.5" y1="68.9" x2="105.8" y2="68.9"/>
	<circle class="st22" cx="115.4" cy="70" r="1.8"/>
	<circle class="st22" cx="113.6" cy="70" r="1.8"/>
	<circle class="st23" cx="109.8" cy="59.9" r="4"/>
	<g>
		<line class="st21" x1="107.7" y1="59.3" x2="111.9" y2="59.3"/>
		<line class="st21" x1="107.7" y1="58.3" x2="111.9" y2="58.3"/>
	</g>
	<g>
		<line class="st21" x1="109.8" y1="59.1" x2="109.8" y2="62.7"/>
		<path class="st21" d="M110.8,62.7"/>
	</g>
	<line class="st21" x1="107.9" y1="52" x2="107.9" y2="54.8"/>
	<line class="st21" x1="111.9" y1="52.8" x2="111.9" y2="55.5"/>
	<line class="st21" x1="109.8" y1="53.6" x2="109.8" y2="55.2"/>
	<line class="st21" x1="109.8" y1="51.4" x2="109.8" y2="53"/>
</g>
</svg>
