<?xml version="1.0" encoding="UTF-8" standalone="no"?>
<!DOCTYPE svg PUBLIC "-//W3C//DTD SVG 1.1//EN" "http://www.w3.org/Graphics/SVG/1.1/DTD/svg11.dtd">
<svg version="1.1" xmlns="http://www.w3.org/2000/svg" xmlns:xlink="http://www.w3.org/1999/xlink" preserveAspectRatio="xMidYMid meet" viewBox="0 0 640 640" width="36" height="36"><defs><path d="M42 21C42 21 42 21 42 21C39.9 21 23.1 21 21 21C21 21 21 21 21 21C21 21 21 21 21 21C22.4 21 29.4 21 42 21C42 21 42 21 42 21Z" id="arzUZ1Wly"></path><path d="M333.18 0.27L339.72 0.6L346.23 1.06L352.7 1.65L359.13 2.37L365.52 3.22L371.87 4.19L378.19 5.29L384.45 6.5L390.68 7.84L396.86 9.31L402.99 10.88L409.07 12.58L415.11 14.4L421.09 16.32L427.03 18.37L432.91 20.52L438.73 22.79L444.5 25.16L450.22 27.65L455.87 30.24L461.47 32.94L467 35.74L472.48 38.65L477.89 41.66L483.23 44.77L488.51 47.98L493.72 51.29L498.87 54.69L503.94 58.2L508.95 61.79L513.88 65.48L518.74 69.26L523.52 73.13L528.23 77.1L532.86 81.15L537.41 85.28L541.88 89.51L546.27 93.81L550.57 98.2L554.79 102.66L558.92 107.21L562.97 111.83L566.92 116.54L570.79 121.32L574.57 126.17L578.25 131.1L581.85 136.1L585.34 141.17L588.74 146.31L592.05 151.52L595.26 156.79L598.36 162.14L601.37 167.54L604.28 173.02L607.08 178.55L609.77 184.14L612.36 189.8L614.85 195.51L617.22 201.28L619.49 207.1L621.64 212.98L623.68 218.91L625.61 224.9L627.42 230.93L629.12 237.01L630.7 243.15L632.16 249.32L633.5 255.55L634.71 261.82L635.81 268.13L636.78 274.48L637.63 280.87L638.35 287.3L638.94 293.77L639.4 300.28L639.73 306.82L639.93 313.39L640 320L639.93 326.61L639.73 333.19L639.4 339.73L638.94 346.24L638.35 352.72L637.63 359.15L636.78 365.55L635.81 371.91L634.71 378.22L633.49 384.49L632.15 390.72L630.69 396.9L629.11 403.04L627.42 409.13L625.6 415.16L623.68 421.15L621.63 427.09L619.48 432.97L617.22 438.8L614.84 444.57L612.36 450.28L609.77 455.94L607.07 461.54L604.27 467.07L601.36 472.54L598.36 477.95L595.25 483.3L592.04 488.58L588.74 493.79L585.34 498.93L581.84 504L578.25 509L574.56 513.93L570.78 518.78L566.92 523.56L562.96 528.26L558.92 532.88L554.79 537.43L550.57 541.89L546.27 546.27L541.89 550.58L537.42 554.79L532.88 558.93L528.25 562.97L523.55 566.93L518.77 570.8L513.91 574.57L508.99 578.26L503.98 581.85L498.91 585.35L493.77 588.75L488.56 592.06L483.28 595.27L477.94 598.37L472.53 601.38L467.05 604.28L461.52 607.08L455.92 609.78L450.27 612.37L444.55 614.85L438.78 617.23L432.96 619.49L427.07 621.65L421.14 623.69L415.15 625.61L409.12 627.43L403.03 629.12L396.9 630.7L390.71 632.16L384.49 633.5L378.22 634.72L371.9 635.81L365.55 636.78L359.15 637.63L352.72 638.35L346.24 638.94L339.73 639.4L333.19 639.73L326.61 639.93L320 640L313.4 639.93L306.83 639.73L300.29 639.4L293.78 638.94L287.32 638.35L280.89 637.63L274.5 636.78L268.14 635.81L261.83 634.71L255.57 633.49L249.34 632.15L243.16 630.69L237.03 629.11L230.95 627.41L224.91 625.6L218.92 623.67L212.99 621.63L207.11 619.47L201.28 617.21L195.51 614.83L189.8 612.34L184.14 609.75L178.54 607.05L173.01 604.25L167.53 601.34L162.12 598.33L156.77 595.22L151.49 592.01L146.28 588.7L141.13 585.3L136.06 581.8L131.05 578.2L126.12 574.51L121.26 570.73L116.48 566.86L111.77 562.9L107.14 558.85L102.59 554.71L98.12 550.49L93.73 546.19L89.43 541.8L85.21 537.34L81.08 532.79L77.04 528.17L73.08 523.47L69.22 518.69L65.44 513.83L61.75 508.91L58.16 503.9L54.66 498.83L51.26 493.69L47.96 488.48L44.75 483.2L41.64 477.86L38.64 472.45L35.73 466.98L32.93 461.44L30.23 455.85L27.64 450.19L25.16 444.48L22.78 438.71L20.52 432.88L18.37 427L16.32 421.07L14.4 415.08L12.58 409.05L10.89 402.97L9.31 396.83L7.85 390.66L6.51 384.43L5.29 378.16L4.19 371.85L3.22 365.5L2.37 359.11L1.65 352.68L1.06 346.22L0.6 339.71L0.27 333.17L0.07 326.6L0 320L0.07 313.39L0.27 306.81L0.6 300.27L1.06 293.76L1.65 287.28L2.37 280.85L3.22 274.45L4.19 268.1L5.28 261.78L6.5 255.51L7.84 249.29L9.3 243.1L10.88 236.97L12.57 230.88L14.39 224.85L16.31 218.86L18.35 212.93L20.51 207.04L22.77 201.22L25.15 195.45L27.63 189.73L30.22 184.08L32.92 178.48L35.72 172.95L38.62 167.47L41.63 162.06L44.73 156.72L47.94 151.44L51.25 146.23L54.65 141.09L58.15 136.02L61.74 131.01L65.43 126.09L69.2 121.23L73.07 116.45L77.03 111.75L81.07 107.12L85.21 102.58L89.42 98.11L93.73 93.73L98.11 89.43L102.57 85.21L107.12 81.08L111.74 77.04L116.44 73.08L121.22 69.22L126.07 65.44L131 61.75L136 58.16L141.07 54.66L146.21 51.26L151.42 47.96L156.7 44.75L162.05 41.64L167.46 38.64L172.93 35.73L178.46 32.93L184.06 30.23L189.72 27.64L195.43 25.16L201.2 22.78L207.03 20.52L212.91 18.37L218.85 16.32L224.84 14.4L230.87 12.58L236.96 10.89L243.1 9.31L249.28 7.85L255.51 6.51L261.78 5.29L268.09 4.19L274.45 3.22L280.85 2.37L287.28 1.65L293.76 1.06L300.27 0.6L306.81 0.27L313.39 0.07L320 0L326.61 0.07L333.18 0.27ZM308.64 44.45L303 44.74L297.39 45.14L291.81 45.65L286.26 46.27L280.75 47L275.27 47.83L269.83 48.78L264.43 49.83L259.06 50.98L253.74 52.24L248.45 53.6L243.2 55.07L238 56.63L232.84 58.29L227.72 60.05L222.66 61.91L217.63 63.86L212.66 65.9L207.74 68.04L202.86 70.28L198.04 72.6L193.27 75.02L188.55 77.52L183.89 80.11L179.28 82.79L174.73 85.55L170.24 88.4L165.81 91.33L161.44 94.35L157.13 97.44L152.88 100.62L148.7 103.88L144.58 107.21L140.53 110.62L136.54 114.1L132.63 117.66L128.78 121.3L125 125L121.3 128.78L117.66 132.63L114.1 136.54L110.62 140.53L107.21 144.58L103.88 148.7L100.62 152.88L97.44 157.13L94.35 161.44L91.33 165.81L88.4 170.24L85.55 174.73L82.79 179.28L80.11 183.89L77.52 188.55L75.02 193.27L72.6 198.04L70.28 202.86L68.04 207.74L65.9 212.66L63.86 217.63L61.91 222.66L60.05 227.72L58.29 232.84L56.63 238L55.07 243.2L53.6 248.45L52.24 253.74L50.98 259.06L49.83 264.43L48.78 269.83L47.83 275.27L47 280.75L46.27 286.26L45.65 291.81L45.14 297.39L44.74 303L44.45 308.64L44.28 314.3L44.22 320L44.28 325.7L44.45 331.38L44.74 337.02L45.14 342.63L45.65 348.22L46.27 353.76L46.99 359.28L47.83 364.76L48.77 370.21L49.82 375.61L50.98 380.98L52.23 386.31L53.59 391.6L55.06 396.85L56.62 402.06L58.28 407.22L60.04 412.33L61.89 417.41L63.84 422.43L65.89 427.4L68.03 432.33L70.26 437.21L72.59 442.03L75 446.8L77.5 451.52L80.09 456.18L82.77 460.79L85.54 465.34L88.39 469.83L91.32 474.26L94.33 478.64L97.43 482.95L100.61 487.2L103.86 491.38L107.2 495.5L110.61 499.55L114.1 503.54L117.66 507.46L121.29 511.31L125 515.08L128.77 518.79L132.62 522.42L136.53 525.97L140.51 529.45L144.56 532.86L148.67 536.19L152.85 539.44L157.1 542.61L161.4 545.71L165.77 548.72L170.2 551.65L174.69 554.49L179.24 557.25L183.84 559.93L188.5 562.52L193.22 565.02L197.99 567.43L202.81 569.75L207.68 571.98L212.61 574.12L217.58 576.17L222.6 578.12L227.67 579.97L232.79 581.73L237.95 583.39L243.15 584.95L248.4 586.41L253.69 587.77L259.02 589.02L264.39 590.18L269.8 591.23L275.24 592.17L280.72 593.01L286.24 593.74L291.78 594.35L297.37 594.86L302.98 595.26L308.62 595.55L314.3 595.72L320 595.78L325.7 595.72L331.36 595.55L337 595.26L342.61 594.86L348.19 594.35L353.74 593.73L359.25 593L364.73 592.17L370.17 591.22L375.57 590.17L380.94 589.02L386.26 587.76L391.55 586.4L396.8 584.93L402 583.37L407.16 581.71L412.28 579.95L417.34 578.09L422.37 576.14L427.34 574.1L432.26 571.96L437.14 569.72L441.96 567.4L446.73 564.98L451.45 562.48L456.11 559.89L460.72 557.21L465.27 554.45L469.76 551.6L474.19 548.67L478.56 545.65L482.87 542.56L487.12 539.38L491.3 536.12L495.42 532.79L499.47 529.38L503.46 525.9L507.37 522.34L511.22 518.7L515 515L518.7 511.22L522.34 507.37L525.9 503.46L529.38 499.47L532.79 495.42L536.12 491.3L539.38 487.12L542.56 482.87L545.65 478.56L548.67 474.19L551.6 469.76L554.45 465.27L557.21 460.72L559.89 456.11L562.48 451.45L564.98 446.73L567.4 441.96L569.72 437.14L571.96 432.26L574.1 427.34L576.14 422.37L578.09 417.34L579.95 412.28L581.71 407.16L583.37 402L584.93 396.8L586.4 391.55L587.76 386.26L589.02 380.94L590.17 375.57L591.22 370.17L592.17 364.73L593 359.25L593.73 353.74L594.35 348.19L594.86 342.61L595.26 337L595.55 331.36L595.72 325.7L595.78 320L595.72 314.3L595.55 308.63L595.26 302.99L594.86 297.38L594.35 291.8L593.73 286.25L593 280.74L592.17 275.26L591.22 269.82L590.17 264.41L589.02 259.04L587.76 253.71L586.4 248.43L584.94 243.18L583.38 237.98L581.72 232.82L579.96 227.7L578.1 222.63L576.15 217.61L574.11 212.63L571.97 207.71L569.74 202.83L567.41 198.01L565 193.24L562.5 188.52L559.91 183.86L557.23 179.25L554.47 174.71L551.62 170.21L548.69 165.78L545.68 161.41L542.58 157.1L539.41 152.85L536.15 148.67L532.82 144.55L529.41 140.5L525.93 136.51L522.37 132.59L518.74 128.74L515.03 124.97L511.26 121.26L507.41 117.63L503.49 114.07L499.5 110.59L495.45 107.18L491.33 103.85L487.15 100.59L482.9 97.42L478.59 94.32L474.22 91.31L469.79 88.38L465.29 85.53L460.75 82.77L456.14 80.09L451.48 77.5L446.76 75L441.99 72.59L437.17 70.26L432.29 68.03L427.37 65.89L422.39 63.85L417.37 61.9L412.3 60.04L407.18 58.28L402.02 56.62L396.82 55.06L391.57 53.6L386.29 52.24L380.96 50.98L375.59 49.83L370.18 48.78L364.74 47.83L359.26 47L353.75 46.27L348.2 45.65L342.62 45.14L337.01 44.74L331.37 44.45L325.7 44.28L320 44.22L314.3 44.28L308.64 44.45Z" id="cM5u67us3"></path><path d="M297.89 449.24C297.89 461.45 307.79 471.35 320 471.35C332.21 471.35 342.11 461.45 342.11 449.24C342.11 441.5 342.11 402.79 342.11 333.13C411.78 333.13 450.49 333.13 458.23 333.13C470.44 333.13 480.34 323.22 480.34 311.01C480.34 298.8 470.44 288.9 458.23 288.9C450.49 288.9 411.78 288.9 342.11 288.9C342.11 219.24 342.11 180.54 342.11 172.8C342.11 160.59 332.21 150.69 320 150.69C307.79 150.69 297.89 160.59 297.89 172.8C297.89 180.54 297.89 219.24 297.89 288.9C228.22 288.9 189.51 288.9 181.77 288.9C169.56 288.9 159.66 298.8 159.66 311.01C159.66 323.22 169.56 333.13 181.77 333.13C189.51 333.13 228.22 333.13 297.89 333.13C297.89 395.05 297.89 433.76 297.89 449.24Z" id="b3CBtm7tU1"></path></defs><g><g><path></path><path></path><path></path><g><use xlink:href="#arzUZ1Wly" opacity="1" fill="#000000" fill-opacity="1"></use><g><use xlink:href="#arzUZ1Wly" opacity="1" fill-opacity="0" stroke="#000000" stroke-width="1" stroke-opacity="0"></use></g></g><g><use xlink:href="#cM5u67us3" opacity="1" fill="#fb873e" fill-opacity="1"></use><g><use xlink:href="#cM5u67us3" opacity="1" fill-opacity="0" stroke="#000000" stroke-width="1" stroke-opacity="0"></use></g></g><g><use xlink:href="#b3CBtm7tU1" opacity="1" fill="#000000" fill-opacity="1"></use><g><use xlink:href="#b3CBtm7tU1" opacity="1" fill-opacity="0" stroke="#000000" stroke-width="1" stroke-opacity="0"></use></g></g></g></g></svg>