<?xml version="1.0" encoding="UTF-8" standalone="no"?>
<!DOCTYPE svg PUBLIC "-//W3C//DTD SVG 1.1//EN" "http://www.w3.org/Graphics/SVG/1.1/DTD/svg11.dtd">
<svg version="1.1" xmlns="http://www.w3.org/2000/svg" xmlns:xlink="http://www.w3.org/1999/xlink" preserveAspectRatio="xMidYMid meet" viewBox="0 0 640 640" width="24" height="24"><defs><path d="M640 320C640 343.55 620.88 362.67 597.33 362.67C573.78 362.67 554.67 343.55 554.67 320C554.67 296.45 573.78 277.33 597.33 277.33C620.88 277.33 640 296.45 640 320Z" id="c1cwzkufGR"></path><path d="M42.67 277.33L597.33 277.33L597.33 362.67L42.67 362.67L42.67 277.33Z" id="c2j13tH9ez"></path><path d="M85.33 320C85.33 343.55 66.22 362.67 42.67 362.67C19.12 362.67 0 343.55 0 320C0 296.45 19.12 277.33 42.67 277.33C66.22 277.33 85.33 296.45 85.33 320Z" id="bpH76n2gg"></path><path d="M640 62.67C640 86.22 620.88 105.33 597.33 105.33C573.78 105.33 554.67 86.22 554.67 62.67C554.67 39.12 573.78 20 597.33 20C620.88 20 640 39.12 640 62.67Z" id="gGAtEROt0"></path><path d="M42.67 20L597.33 20L597.33 105.33L42.67 105.33L42.67 20Z" id="g11EByivXt"></path><path d="M85.33 62.67C85.33 86.22 66.22 105.33 42.67 105.33C19.12 105.33 0 86.22 0 62.67C0 39.12 19.12 20 42.67 20C66.22 20 85.33 39.12 85.33 62.67Z" id="ca0n6OqToP"></path><path d="M640 577.33C640 600.88 620.88 620 597.33 620C573.78 620 554.67 600.88 554.67 577.33C554.67 553.78 573.78 534.67 597.33 534.67C620.88 534.67 640 553.78 640 577.33Z" id="agEygNklu"></path><path d="M42.67 534.67L597.33 534.67L597.33 620L42.67 620L42.67 534.67Z" id="c2KqmBN6fl"></path><path d="M85.33 577.33C85.33 600.88 66.22 620 42.67 620C19.12 620 0 600.88 0 577.33C0 553.78 19.12 534.67 42.67 534.67C66.22 534.67 85.33 553.78 85.33 577.33Z" id="a3BTb49YQY"></path></defs><g><g><g><use xlink:href="#c1cwzkufGR" opacity="1" fill="#000000" fill-opacity="1"></use></g><g><use xlink:href="#c2j13tH9ez" opacity="1" fill="#000000" fill-opacity="1"></use></g><g><use xlink:href="#bpH76n2gg" opacity="1" fill="#000000" fill-opacity="1"></use></g><g><use xlink:href="#gGAtEROt0" opacity="1" fill="#fb873e" fill-opacity="1"></use></g><g><use xlink:href="#g11EByivXt" opacity="1" fill="#fb873e" fill-opacity="1"></use></g><g><use xlink:href="#ca0n6OqToP" opacity="1" fill="#fb873e" fill-opacity="1"></use></g><g><use xlink:href="#agEygNklu" opacity="1" fill="#fb873e" fill-opacity="1"></use></g><g><use xlink:href="#c2KqmBN6fl" opacity="1" fill="#fb873e" fill-opacity="1"></use></g><g><use xlink:href="#a3BTb49YQY" opacity="1" fill="#fb873e" fill-opacity="1"></use></g></g></g></svg>