<?xml version="1.0" encoding="UTF-8" standalone="no"?>
<!DOCTYPE svg PUBLIC "-//W3C//DTD SVG 1.1//EN" "http://www.w3.org/Graphics/SVG/1.1/DTD/svg11.dtd">
<svg version="1.1" xmlns="http://www.w3.org/2000/svg" xmlns:xlink="http://www.w3.org/1999/xlink" preserveAspectRatio="xMidYMid meet" viewBox="0 0 640 640" width="30" height="30"><defs><path d="M320.34 20.9C155.38 20.9 21.64 154.63 21.64 319.6C21.64 484.57 155.38 618.3 320.34 618.3C485.31 618.3 619.04 484.57 619.04 319.6C619.04 154.63 485.31 20.9 320.34 20.9Z" id="f3EgZSEY7j"></path><path d="M443.39 389.15C458.16 403.92 458.16 427.87 443.39 442.64C438.04 447.99 448.74 437.29 443.39 442.64C428.62 457.42 404.67 457.42 389.89 442.64C346.02 398.78 241.16 293.92 197.3 250.05C182.52 235.28 182.52 211.32 197.3 196.55C202.65 191.2 191.95 201.9 197.3 196.55C212.07 181.78 236.02 181.78 250.79 196.55C294.66 240.42 399.52 345.28 443.39 389.15Z" id="c42K69AYP"></path><path d="M389.89 196.55C404.67 181.78 428.62 181.78 443.39 196.55C448.74 201.9 438.04 191.2 443.39 196.55C458.16 211.32 458.16 235.28 443.39 250.05C399.52 293.92 294.66 398.78 250.79 442.64C236.02 457.42 212.07 457.42 197.3 442.64C191.95 437.29 202.65 447.99 197.3 442.64C182.52 427.87 182.52 403.92 197.3 389.15C241.16 345.28 346.02 240.42 389.89 196.55Z" id="b3I9h2UsED"></path></defs><g><g><g><use xlink:href="#f3EgZSEY7j" opacity="1" fill="#000000" fill-opacity="0"></use><g><use xlink:href="#f3EgZSEY7j" opacity="1" fill-opacity="0" stroke="#fb873e" stroke-width="40" stroke-opacity="1"></use></g></g><g><use xlink:href="#c42K69AYP" opacity="1" fill="#000000" fill-opacity="1"></use></g><g><use xlink:href="#b3I9h2UsED" opacity="1" fill="#000000" fill-opacity="1"></use></g></g></g></svg>