<svg width="40" height="40" xmlns="http://www.w3.org/2000/svg">

 <g>
  <title>background</title>
  <rect fill="none" id="canvas_background" height="402" width="582" y="-1" x="-1"/>
 </g>
 <g>
  <title>Layer 1</title>
  <path fill="#ffffff" id="svg_2" d="m38.9,11.9c-0.8,-0.9 -1.9,-1.5 -3.1,-1.5l-15.4,0c-0.5,0 -1,0.4 -1,1c0,0.6 0.5,1 1,1l15.4,0c0.6,0 1.2,0.3 1.6,0.7c0.4,0.5 0.6,1.1 0.4,1.7l-0.9,5l-11,0c-0.5,0 -1,0.4 -1,1s0.5,1 1,1l10.7,0l-0.9,4.8c-0.1,0.7 -0.8,1.2 -1.5,1.2l-19.2,0c-0.7,0 -1.3,-0.5 -1.5,-1.2l-3.9,-21.7c-0.1,-0.5 -0.5,-0.8 -1,-0.8l-7.7,0c-0.5,0 -1,0.4 -1,1s0.5,1 1,1l6.9,0l3.8,21c0.2,1.4 1.2,2.4 2.5,2.8c-0.5,0.7 -0.9,1.6 -0.9,2.6c0,2.5 2,4.5 4.5,4.5c2.5,0 4.5,-2 4.5,-4.5c0,-0.9 -0.3,-1.8 -0.8,-2.5l6.1,0c-0.5,0.7 -0.8,1.6 -0.8,2.5c0,2.5 2,4.5 4.5,4.5c2.5,0 4.5,-2 4.5,-4.5c0,-1 -0.3,-1.9 -0.8,-2.6c1.3,-0.3 2.4,-1.4 2.7,-2.8l2.2,-11.8c0.2,-1.2 -0.1,-2.4 -0.9,-3.4zm-18.7,20.5c0,1.4 -1.1,2.5 -2.5,2.5s-2.5,-1.1 -2.5,-2.5c0,-1.4 1.1,-2.5 2.5,-2.5s2.5,1.1 2.5,2.5zm11.1,2.5c-1.4,0 -2.5,-1.1 -2.5,-2.5c0,-1.4 1.1,-2.5 2.5,-2.5c1.4,0 2.5,1.1 2.5,2.5c0,1.4 -1.1,2.5 -2.5,2.5z"/>
 </g>
</svg>