<?xml version="1.0" encoding="UTF-8" standalone="no"?>
<!DOCTYPE svg PUBLIC "-//W3C//DTD SVG 1.1//EN" "http://www.w3.org/Graphics/SVG/1.1/DTD/svg11.dtd">
<svg version="1.1" xmlns="http://www.w3.org/2000/svg" xmlns:xlink="http://www.w3.org/1999/xlink" preserveAspectRatio="xMidYMid meet" viewBox="0 0 640 640" width="36" height="36"><defs><path d="M42 21C42 21 42 21 42 21C39.9 21 23.1 21 21 21C21 21 21 21 21 21C21 21 21 21 21 21C22.4 21 29.4 21 42 21C42 21 42 21 42 21Z" id="arzUZ1Wly"></path><path d="M333.18 0.27L339.72 0.6L346.23 1.06L352.69 1.65L359.12 2.37L365.51 3.22L371.86 4.19L378.17 5.29L384.44 6.51L390.67 7.85L396.84 9.31L402.98 10.89L409.06 12.59L415.1 14.4L421.08 16.33L427.01 18.37L432.9 20.53L438.72 22.79L444.49 25.17L450.21 27.66L455.86 30.25L461.46 32.95L467 35.75L472.47 38.66L477.88 41.67L483.23 44.78L488.51 47.99L493.72 51.3L498.87 54.7L503.94 58.2L508.95 61.8L513.88 65.49L518.74 69.27L523.52 73.14L528.23 77.1L532.86 81.15L537.41 85.29L541.88 89.51L546.27 93.82L550.57 98.2L554.79 102.66L558.92 107.21L562.96 111.83L566.92 116.54L570.78 121.32L574.56 126.17L578.24 131.1L581.84 136.1L585.33 141.17L588.74 146.31L592.04 151.52L595.25 156.8L598.36 162.15L601.36 167.56L604.27 173.03L607.07 178.56L609.77 184.16L612.36 189.81L614.84 195.53L617.21 201.3L619.48 207.12L621.63 213L623.68 218.94L625.6 224.92L627.42 230.96L629.11 237.04L630.69 243.17L632.15 249.35L633.49 255.58L634.71 261.84L635.81 268.15L636.78 274.5L637.63 280.9L638.35 287.33L638.94 293.79L639.4 300.3L639.73 306.83L639.93 313.41L640 320.01L639.93 326.62L639.73 333.2L639.4 339.74L638.94 346.25L638.35 352.73L637.63 359.16L636.78 365.56L635.81 371.91L634.72 378.23L633.5 384.5L632.16 390.73L630.7 396.91L629.12 403.04L627.43 409.13L625.61 415.17L623.69 421.15L621.65 427.09L619.49 432.97L617.23 438.8L614.85 444.57L612.37 450.28L609.78 455.94L607.08 461.53L604.28 467.07L601.38 472.54L598.37 477.95L595.26 483.3L592.06 488.57L588.75 493.78L585.35 498.93L581.85 504L578.26 509L574.57 513.93L570.79 518.78L566.93 523.56L562.97 528.27L558.92 532.89L554.79 537.44L550.57 541.91L546.27 546.29L541.89 550.59L537.43 554.8L532.88 558.93L528.26 562.98L523.56 566.93L518.78 570.8L513.93 574.58L509 578.26L504 581.85L498.93 585.35L493.79 588.75L488.58 592.06L483.3 595.26L477.95 598.37L472.54 601.37L467.07 604.28L461.54 607.08L455.94 609.78L450.29 612.37L444.57 614.85L438.8 617.22L432.97 619.49L427.09 621.64L421.16 623.68L415.17 625.61L409.13 627.42L403.05 629.12L396.91 630.7L390.73 632.16L384.5 633.5L378.23 634.71L371.91 635.81L365.56 636.78L359.16 637.63L352.73 638.35L346.25 638.94L339.74 639.4L333.2 639.73L326.62 639.93L320.01 640L313.41 639.93L306.83 639.73L300.3 639.4L293.79 638.94L287.33 638.35L280.9 637.63L274.5 636.78L268.15 635.81L261.84 634.71L255.57 633.49L249.35 632.15L243.17 630.69L237.04 629.11L230.95 627.41L224.92 625.6L218.93 623.67L213 621.63L207.12 619.47L201.29 617.21L195.52 614.83L189.8 612.34L184.14 609.75L178.55 607.05L173.01 604.25L167.54 601.34L162.12 598.33L156.78 595.22L151.49 592.01L146.28 588.7L141.14 585.3L136.06 581.8L131.05 578.2L126.12 574.51L121.26 570.73L116.48 566.86L111.77 562.9L107.14 558.85L102.59 554.71L98.12 550.49L93.73 546.18L89.43 541.8L85.21 537.34L81.08 532.79L77.04 528.17L73.08 523.46L69.22 518.69L65.44 513.83L61.76 508.91L58.16 503.91L54.67 498.83L51.26 493.69L47.96 488.48L44.75 483.21L41.64 477.86L38.64 472.45L35.73 466.98L32.93 461.45L30.23 455.86L27.64 450.2L25.16 444.49L22.79 438.72L20.52 432.89L18.37 427.02L16.32 421.08L14.4 415.1L12.58 409.06L10.89 402.98L9.31 396.85L7.85 390.67L6.51 384.45L5.29 378.18L4.19 371.87L3.22 365.52L2.37 359.13L1.65 352.7L1.06 346.23L0.6 339.73L0.27 333.19L0.07 326.61L0 320.01L0.07 313.4L0.27 306.82L0.6 300.28L1.06 293.77L1.65 287.29L2.37 280.86L3.22 274.46L4.19 268.11L5.28 261.79L6.5 255.52L7.84 249.29L9.3 243.11L10.88 236.98L12.57 230.89L14.39 224.85L16.31 218.87L18.35 212.93L20.51 207.05L22.77 201.22L25.15 195.45L27.63 189.74L30.22 184.08L32.92 178.49L35.72 172.95L38.62 167.48L41.63 162.07L44.74 156.72L47.94 151.44L51.25 146.23L54.65 141.09L58.15 136.02L61.74 131.02L65.43 126.09L69.21 121.23L73.07 116.45L77.03 111.75L81.08 107.13L85.21 102.58L89.43 98.11L93.73 93.73L98.11 89.43L102.57 85.21L107.12 81.08L111.74 77.04L116.44 73.08L121.22 69.22L126.08 65.44L131 61.76L136 58.16L141.08 54.67L146.22 51.26L151.43 47.96L156.71 44.75L162.05 41.64L167.46 38.64L172.93 35.73L178.47 32.93L184.07 30.23L189.72 27.64L195.44 25.16L201.21 22.79L207.04 20.52L212.92 18.37L218.86 16.32L224.84 14.4L230.88 12.58L236.97 10.89L243.1 9.31L249.29 7.85L255.51 6.51L261.79 5.29L268.1 4.19L274.46 3.22L280.86 2.37L287.29 1.65L293.76 1.06L300.27 0.6L306.82 0.27L313.4 0.07L320.01 0L326.61 0.07L333.18 0.27ZM308.64 44.45L303 44.74L297.4 45.14L291.82 45.65L286.27 46.27L280.76 47L275.28 47.84L269.84 48.78L264.44 49.83L259.07 50.99L253.74 52.24L248.46 53.6L243.21 55.07L238.01 56.63L232.85 58.29L227.73 60.05L222.66 61.91L217.64 63.86L212.67 65.91L207.74 68.05L202.87 70.28L198.04 72.6L193.27 75.02L188.56 77.52L183.89 80.11L179.29 82.79L174.74 85.56L170.25 88.4L165.82 91.34L161.44 94.35L157.14 97.45L152.89 100.62L148.7 103.88L144.59 107.21L140.53 110.62L136.55 114.11L132.63 117.67L128.78 121.3L125.01 125.01L121.3 128.78L117.67 132.63L114.11 136.55L110.62 140.53L107.21 144.59L103.88 148.7L100.62 152.89L97.45 157.14L94.35 161.44L91.34 165.82L88.4 170.25L85.56 174.74L82.79 179.29L80.11 183.89L77.52 188.56L75.02 193.27L72.6 198.04L70.28 202.87L68.05 207.74L65.91 212.67L63.86 217.64L61.91 222.66L60.05 227.73L58.29 232.85L56.63 238.01L55.07 243.21L53.6 248.46L52.24 253.74L50.99 259.07L49.83 264.44L48.78 269.84L47.84 275.28L47 280.76L46.27 286.27L45.65 291.82L45.14 297.4L44.74 303L44.45 308.64L44.28 314.31L44.22 320.01L44.28 325.71L44.45 331.38L44.74 337.03L45.14 342.64L45.65 348.22L46.27 353.77L47 359.29L47.83 364.77L48.78 370.21L49.82 375.62L50.98 380.99L52.24 386.32L53.6 391.61L55.06 396.86L56.62 402.06L58.28 407.22L60.04 412.34L61.89 417.41L63.85 422.44L65.89 427.41L68.03 432.34L70.26 437.21L72.59 442.03L75 446.81L77.51 451.52L80.1 456.19L82.78 460.79L85.54 465.34L88.39 469.83L91.32 474.27L94.34 478.64L97.43 482.95L100.61 487.19L103.87 491.38L107.2 495.5L110.61 499.55L114.1 503.54L117.66 507.45L121.3 511.3L125.01 515.08L128.78 518.78L132.62 522.41L136.53 525.97L140.52 529.45L144.56 532.86L148.68 536.19L152.86 539.44L157.1 542.61L161.41 545.7L165.78 548.72L170.21 551.64L174.69 554.49L179.24 557.25L183.85 559.93L188.51 562.52L193.22 565.02L197.99 567.43L202.81 569.75L207.69 571.98L212.61 574.12L217.59 576.16L222.61 578.11L227.68 579.97L232.79 581.73L237.96 583.39L243.16 584.95L248.41 586.41L253.7 587.77L259.03 589.02L264.4 590.18L269.8 591.23L275.25 592.17L280.73 593.01L286.24 593.73L291.79 594.35L297.38 594.86L302.99 595.26L308.63 595.55L314.31 595.72L320.01 595.78L325.71 595.72L331.37 595.55L337.01 595.26L342.62 594.86L348.2 594.35L353.75 593.73L359.26 593L364.73 592.17L370.18 591.22L375.58 590.17L380.95 589.02L386.27 587.76L391.56 586.4L396.8 584.94L402.01 583.38L407.17 581.72L412.28 579.96L417.35 578.1L422.37 576.15L427.34 574.1L432.27 571.96L437.14 569.73L441.96 567.41L446.73 564.99L451.45 562.49L456.11 559.9L460.72 557.22L465.27 554.46L469.76 551.61L474.19 548.68L478.56 545.66L482.87 542.57L487.11 539.39L491.3 536.14L495.41 532.81L499.47 529.4L503.45 525.91L507.37 522.35L511.22 518.72L514.99 515.01L518.7 511.24L522.33 507.39L525.89 503.47L529.38 499.48L532.79 495.43L536.12 491.31L539.38 487.13L542.55 482.88L545.65 478.57L548.66 474.2L551.6 469.77L554.44 465.28L557.21 460.73L559.89 456.12L562.48 451.46L564.98 446.75L567.4 441.98L569.72 437.15L571.95 432.28L574.09 427.35L576.14 422.38L578.09 417.36L579.95 412.29L581.71 407.17L583.37 402.01L584.93 396.81L586.4 391.56L587.76 386.28L589.01 380.95L590.17 375.58L591.22 370.18L592.16 364.74L593 359.26L593.73 353.75L594.35 348.2L594.86 342.62L595.26 337.01L595.55 331.37L595.72 325.71L595.78 320.01L595.72 314.31L595.55 308.63L595.26 302.99L594.86 297.38L594.35 291.79L593.73 286.24L593 280.73L592.17 275.25L591.22 269.8L590.18 264.39L589.02 259.02L587.76 253.69L586.4 248.4L584.94 243.16L583.38 237.95L581.72 232.79L579.96 227.67L578.11 222.6L576.15 217.58L574.11 212.6L571.97 207.68L569.74 202.8L567.41 197.97L565 193.2L562.49 188.49L559.9 183.82L557.22 179.21L554.46 174.66L551.61 170.17L548.68 165.74L545.66 161.37L542.57 157.06L539.39 152.81L536.13 148.62L532.8 144.51L529.39 140.45L525.9 136.47L522.34 132.55L518.7 128.7L514.99 124.92L511.22 121.22L507.38 117.59L503.47 114.03L499.49 110.55L495.44 107.14L491.32 103.81L487.15 100.56L482.9 97.39L478.6 94.3L474.23 91.28L469.8 88.36L465.31 85.51L460.77 82.75L456.16 80.07L451.5 77.48L446.79 74.98L442.02 72.57L437.2 70.25L432.32 68.02L427.4 65.88L422.43 63.84L417.4 61.89L412.33 60.03L407.22 58.27L402.06 56.61L396.85 55.05L391.61 53.59L386.32 52.23L380.99 50.98L375.62 49.82L370.21 48.77L364.77 47.83L359.29 46.99L353.77 46.27L348.22 45.65L342.64 45.14L337.03 44.74L331.38 44.45L325.71 44.28L320.01 44.22L314.31 44.28L308.64 44.45Z" id="c2NtK12iwR"></path><path d="M458.25 333.13C470.45 333.13 480.36 323.23 480.36 311.02C480.36 298.81 470.45 288.91 458.25 288.91C430.6 288.91 209.42 288.91 181.77 288.91C169.56 288.91 159.66 298.81 159.66 311.02C159.66 323.23 169.56 333.13 181.77 333.13C237.07 333.13 402.95 333.13 458.25 333.13Z" id="b1Z2Py7pKv"></path></defs><g><g><path></path><path></path><path></path><g><use xlink:href="#arzUZ1Wly" opacity="1" fill="#000000" fill-opacity="1"></use><g><use xlink:href="#arzUZ1Wly" opacity="1" fill-opacity="0" stroke="#000000" stroke-width="1" stroke-opacity="0"></use></g></g><g><use xlink:href="#c2NtK12iwR" opacity="1" fill="#fb873e" fill-opacity="1"></use><g><use xlink:href="#c2NtK12iwR" opacity="1" fill-opacity="0" stroke="#000000" stroke-width="1" stroke-opacity="0"></use></g></g><g><use xlink:href="#b1Z2Py7pKv" opacity="1" fill="#000000" fill-opacity="1"></use><g><use xlink:href="#b1Z2Py7pKv" opacity="1" fill-opacity="0" stroke="#000000" stroke-width="1" stroke-opacity="0"></use></g></g></g></g></svg>