<svg width="16" height="16" xmlns="http://www.w3.org/2000/svg">
 <title/>

 <g>
  <title>background</title>
  <rect fill="none" id="canvas_background" height="18" width="18" y="-1" x="-1"/>
 </g>
 <g>
  <path fill="#ff0000" stroke="null" id="svg_1" d="m8.11346,15.842089c-4.325227,0 -7.843458,-3.51861 -7.843458,-7.843458s3.518231,-7.843458 7.843458,-7.843458s7.843458,3.51861 7.843458,7.843458s-3.518231,7.843458 -7.843458,7.843458zm0,-14.548698c-3.69731,0 -6.70524,3.00793 -6.70524,6.70524s3.00793,6.70524 6.70524,6.70524s6.70524,-3.00793 6.70524,-6.70524s-3.00793,-6.70524 -6.70524,-6.70524z"/>
  <path fill="#ff0000" stroke="null" id="svg_2" d="m11.373315,11.916756a0.569109,0.569109 0 0 1 -0.40255,-0.166559l-6.519711,-6.52009a0.569109,0.569109 0 1 1 0.80472,-0.80472l6.52009,6.52009a0.569109,0.569109 0 0 1 -0.40255,0.971279z"/>
  <path fill="#ff0000" stroke="null" id="svg_3" d="m4.853225,11.916756a0.569109,0.569109 0 0 1 -0.40217,-0.971279l6.519711,-6.52009a0.569109,0.569109 0 0 1 0.805099,0.80472l-6.52009,6.52009a0.569109,0.569109 0 0 1 -0.40255,0.166559z"/>
 </g>
</svg>