<?xml version="1.0" encoding="UTF-8" standalone="no"?>
<!DOCTYPE svg PUBLIC "-//W3C//DTD SVG 1.1//EN" "http://www.w3.org/Graphics/SVG/1.1/DTD/svg11.dtd">
<svg version="1.1" xmlns="http://www.w3.org/2000/svg" xmlns:xlink="http://www.w3.org/1999/xlink" preserveAspectRatio="xMidYMid meet" viewBox="0 0 640 640" width="24" height="24"><defs><path d="M597.19 528.62L597.17 530.92L597.1 533.21L596.98 535.49L596.82 537.75L596.61 540.01L596.36 542.25L596.07 544.47L595.73 546.69L595.34 548.89L594.92 551.07L594.45 553.24L593.94 555.39L593.38 557.53L592.79 559.65L592.15 561.76L591.48 563.84L590.77 565.91L590.01 567.96L589.22 569.99L588.39 572L587.52 574L586.61 575.97L585.67 577.92L584.69 579.85L583.68 581.76L582.62 583.65L581.54 585.51L580.42 587.36L579.26 589.17L578.07 590.97L576.85 592.74L575.59 594.49L574.3 596.21L572.98 597.9L571.63 599.57L570.25 601.21L568.84 602.83L567.39 604.41L565.92 605.97L564.42 607.5L562.89 609.01L561.33 610.48L559.74 611.92L558.12 613.34L556.48 614.72L554.81 616.07L553.12 617.39L551.4 618.68L549.65 619.93L547.88 621.16L546.09 622.35L544.27 623.5L542.43 624.62L540.56 625.71L538.68 626.76L536.77 627.78L534.84 628.76L532.88 629.7L530.91 630.61L528.92 631.47L526.91 632.31L524.87 633.1L522.82 633.85L520.76 634.57L518.67 635.24L516.56 635.88L514.44 636.47L512.31 637.02L510.15 637.53L507.98 638L505.8 638.43L503.6 638.81L501.39 639.15L499.16 639.45L496.92 639.7L494.67 639.91L492.4 640.07L490.12 640.19L487.83 640.26L485.53 640.28L154.47 640.28L152.17 640.26L149.88 640.19L147.6 640.07L145.33 639.91L143.08 639.7L140.84 639.45L138.61 639.15L136.4 638.81L134.2 638.43L132.02 638L129.85 637.53L127.69 637.02L125.56 636.47L123.44 635.88L121.33 635.24L119.24 634.57L117.18 633.85L115.13 633.1L113.09 632.31L111.08 631.47L109.09 630.61L107.12 629.7L105.16 628.76L103.23 627.78L101.32 626.76L99.44 625.71L97.57 624.62L95.73 623.5L93.91 622.35L92.12 621.16L90.35 619.93L88.6 618.68L86.88 617.39L85.19 616.07L83.52 614.72L81.88 613.34L80.26 611.92L78.67 610.48L77.11 609.01L75.58 607.5L74.08 605.97L72.61 604.41L71.16 602.83L69.75 601.21L68.37 599.57L67.02 597.9L65.7 596.21L64.41 594.49L63.15 592.74L61.93 590.97L60.74 589.17L59.58 587.36L58.46 585.51L57.38 583.65L56.32 581.76L55.31 579.85L54.33 577.92L53.39 575.97L52.48 574L51.61 572L50.78 569.99L49.99 567.96L49.23 565.91L48.52 563.84L47.85 561.76L47.21 559.65L46.62 557.53L46.06 555.39L45.55 553.24L45.08 551.07L44.66 548.89L44.27 546.69L43.93 544.47L43.64 542.25L43.39 540.01L43.18 537.75L43.02 535.49L42.9 533.21L42.83 530.92L42.81 528.62L42.81 162.95L597.19 162.95L597.19 528.62ZM106.14 529.61L106.17 530.6L106.22 531.58L106.29 532.56L106.38 533.53L106.49 534.5L106.62 535.46L106.77 536.42L106.93 537.37L107.12 538.31L107.32 539.25L107.54 540.18L107.78 541.1L108.04 542.02L108.32 542.93L108.61 543.83L108.92 544.72L109.25 545.61L109.59 546.49L109.95 547.36L110.33 548.22L110.72 549.07L111.13 549.92L111.56 550.75L112 551.58L112.45 552.39L112.93 553.2L113.41 554L113.91 554.79L114.43 555.56L114.96 556.33L115.5 557.09L116.06 557.83L116.64 558.57L117.22 559.29L117.82 560L118.44 560.7L119.06 561.39L119.7 562.07L120.35 562.73L121.02 563.38L121.69 564.02L122.38 564.65L123.08 565.26L123.8 565.86L124.52 566.45L125.25 567.02L126 567.58L126.75 568.13L127.52 568.66L128.3 569.17L129.09 569.67L129.88 570.16L130.69 570.63L131.51 571.09L132.33 571.53L133.17 571.96L134.01 572.36L134.87 572.76L135.73 573.13L136.6 573.5L137.48 573.84L138.36 574.17L139.26 574.48L140.16 574.77L141.07 575.04L141.99 575.3L142.91 575.54L143.84 575.76L144.78 575.97L145.72 576.15L146.67 576.32L147.63 576.47L148.59 576.59L149.55 576.7L150.53 576.79L151.5 576.86L152.49 576.91L153.47 576.95L154.47 576.96L485.53 576.96L486.53 576.95L487.51 576.91L488.5 576.86L489.47 576.79L490.45 576.7L491.41 576.59L492.37 576.47L493.33 576.32L494.28 576.15L495.22 575.97L496.16 575.76L497.09 575.54L498.01 575.3L498.93 575.04L499.84 574.77L500.74 574.48L501.64 574.17L502.52 573.84L503.4 573.5L504.27 573.13L505.13 572.76L505.99 572.36L506.83 571.96L507.67 571.53L508.49 571.09L509.31 570.63L510.12 570.16L510.91 569.67L511.7 569.17L512.48 568.66L513.25 568.13L514 567.58L514.75 567.02L515.48 566.45L516.2 565.86L516.92 565.26L517.62 564.65L518.31 564.02L518.98 563.38L519.65 562.73L520.3 562.07L520.94 561.39L521.56 560.7L522.18 560L522.78 559.29L523.36 558.57L523.94 557.83L524.5 557.09L525.04 556.33L525.57 555.56L526.09 554.79L526.59 554L527.08 553.2L527.55 552.39L528 551.58L528.44 550.75L528.87 549.92L529.28 549.07L529.67 548.22L530.05 547.36L530.41 546.49L530.75 545.61L531.08 544.72L531.39 543.83L531.68 542.93L531.96 542.02L532.22 541.1L532.46 540.18L532.68 539.25L532.88 538.31L533.07 537.37L533.23 536.42L533.38 535.46L533.51 534.5L533.62 533.53L533.71 532.56L533.78 531.58L533.83 530.6L533.86 529.61L533.87 528.62L533.87 226.27L106.13 226.27L106.13 528.62L106.14 529.61Z" id="b7LQRbfVgH"></path><path d="M418.07 269.59C418.07 286.76 431.99 300.68 449.15 300.68C466.32 300.68 480.24 286.76 480.24 269.59C480.22 258.66 480.11 171.2 480.1 160.27C477.73 115.7 459.26 75.91 430.92 47.21C401.96 17.89 362.87 0 320 0C277.13 0 238.04 17.89 209.08 47.21C180.74 75.9 162.27 115.69 159.9 160.26C159.89 171.19 159.78 258.66 159.76 269.59C159.76 286.76 173.68 300.68 190.85 300.68C208.02 300.68 221.93 286.76 221.93 269.59C221.95 258.98 222.05 174.05 222.07 163.43C223.6 134.68 235.38 109.14 253.45 90.85C270.9 73.19 294.36 62.41 320 62.41C345.65 62.41 369.11 73.19 386.55 90.85C404.62 109.15 416.4 134.68 417.93 163.44C417.96 184.67 418.04 248.36 418.07 269.59Z" id="b40QuLcHsd"></path></defs><g><g><g><use xlink:href="#b7LQRbfVgH" opacity="1" fill="#fb873e" fill-opacity="1"></use><g><use xlink:href="#b7LQRbfVgH" opacity="1" fill-opacity="0" stroke="#000000" stroke-width="1" stroke-opacity="0"></use></g></g><g><use xlink:href="#b40QuLcHsd" opacity="1" fill="#231f20" fill-opacity="1"></use><g><use xlink:href="#b40QuLcHsd" opacity="1" fill-opacity="0" stroke="#000000" stroke-width="1" stroke-opacity="0"></use></g></g></g></g></svg>