<svg width="1706.035" height="1687.226" xmlns="http://www.w3.org/2000/svg">

 <g>
  <title>background</title>
  <rect fill="none" id="canvas_background" height="402" width="582" y="-1" x="-1"/>
 </g>
 <g>
  <title>Layer 1</title>
  <path fill="#ffffff" id="svg_1" d="m1690.842,225.329c-12.553,-15.147 -31.203,-23.104 -50.875,-23.104l-1332.967,0l0,-137.067c0,-36.49 -28.342,-64.933 -64.832,-64.933l-176.098,0c-36.487,0.001 -66.07,30.01 -66.07,66.501s29.583,66.5 66.07,66.5l108.93,0l0,1301.248c0,0.479 0.612,0.941 0.619,1.418c-0.09,2.758 0.066,5.51 0.066,8.289c0,134.123 109.255,243.226 243.377,243.226c111.221,0 205.312,-74.181 234.179,-177.181l341.893,0c28.867,103 122.824,177.181 234.045,177.181c134.122,0 243.238,-109.109 243.238,-243.23c0,-134.123 -109.116,-243.178 -243.238,-243.178c-111.221,0 -205.174,78.228 -234.045,177.228l-341.892,0c-28.867,-99 -123.441,-177.224 -234.658,-177.224c-39.959,0 -75.584,9.691 -111.584,26.838l0,-131.518c10,1.839 20.96,4.903 31.199,4.903l1059.751,0c84.879,0 156.989,-60.083 179.442,-147.979c0.346,-1.346 0.646,-3.222 0.903,-4.59l126.586,-669.039c3.66,-19.332 -1.489,-39.139 -14.039,-54.289zm-461.662,1107.756c61.257,0 111.098,49.838 111.098,111.096c0,61.26 -49.841,111.096 -111.098,111.096c-61.258,0 -111.098,-49.836 -111.098,-111.096c0,-61.258 49.84,-111.096 111.098,-111.096zm-809.98,0c61.258,0 111.095,49.838 111.095,111.096c0,61.26 -49.837,111.096 -111.095,111.096c-61.26,0 -111.101,-49.836 -111.101,-111.096c0.001,-61.258 49.841,-111.096 111.101,-111.096zm1029.71,-410.532c-3.568,12.727 -16.202,45.673 -50.96,45.673l-1059.751,0c-16.802,0 -31.199,-14.891 -31.199,-32.363l0,-601.637l1253.224,0l-111.314,588.327z"/>
 </g>
</svg>