<svg width="20" height="20" xmlns="http://www.w3.org/2000/svg">

 <g>
  <title>background</title>
  <rect fill="none" id="canvas_background" height="22" width="22" y="-1" x="-1"/>
 </g>
 <g>
  <title>Layer 1</title>
  <path stroke="null" fill="#d8d8d8" id="svg_3" d="m6.866111,6.712527c0,0 -3.756286,0.416044 -6.262061,0.6942c-0.225853,0.02734 -0.425554,0.178305 -0.500442,0.407723s0,0.468347 0.166418,0.619312c1.861501,1.698649 4.658507,4.242463 4.658507,4.242463c-0.002377,0 -0.767899,3.700417 -1.276662,6.169342c-0.042793,0.223475 0.038038,0.460026 0.232985,0.601481c0.193758,0.141455 0.443384,0.143832 0.63952,0.033284c2.191959,-1.245755 5.475143,-3.119143 5.475143,-3.119143s3.284372,1.873388 5.472765,3.120332c0.199701,0.10936 0.449328,0.106983 0.643086,-0.034472c0.194946,-0.141455 0.275778,-0.378006 0.231796,-0.600292c-0.508763,-2.470114 -1.273096,-6.170531 -1.273096,-6.170531s2.797006,-2.543814 4.658507,-4.238897c0.166418,-0.155719 0.240117,-0.394648 0.166418,-0.622878s-0.273401,-0.379195 -0.499253,-0.405346c-2.505775,-0.280533 -6.26325,-0.696577 -6.26325,-0.696577s-1.557194,-3.444847 -2.594928,-5.741411c-0.097473,-0.205645 -0.301929,-0.349477 -0.542046,-0.349477s-0.445762,0.145021 -0.53848,0.349477c-1.038922,2.296564 -2.594928,5.741411 -2.594928,5.741411z"/>
 </g>
</svg>