<?xml version="1.0" encoding="UTF-8" standalone="no"?>
<!DOCTYPE svg PUBLIC "-//W3C//DTD SVG 1.1//EN" "http://www.w3.org/Graphics/SVG/1.1/DTD/svg11.dtd">
<svg version="1.1" xmlns="http://www.w3.org/2000/svg" xmlns:xlink="http://www.w3.org/1999/xlink" preserveAspectRatio="xMidYMid meet" viewBox="0 0 640 640" width="24" height="24"><defs><path d="M202.72 26.99L203.56 27.02L204.39 27.07L205.22 27.14L206.05 27.22L206.88 27.31L207.7 27.42L208.53 27.54L209.36 27.67L210.18 27.82L211 27.99L211.82 28.16L212.64 28.35L213.46 28.56L214.27 28.78L215.08 29.01L215.89 29.26L216.69 29.52L217.5 29.8L218.3 30.09L219.09 30.39L219.88 30.71L220.67 31.04L221.45 31.39L222.23 31.75L223.01 32.13L223.78 32.52L224.54 32.92L225.3 33.34L226.06 33.77L226.81 34.22L227.55 34.68L301.03 81.13L301.58 81.48L302.12 81.84L302.66 82.21L303.19 82.58L303.72 82.96L304.24 83.34L304.76 83.73L305.27 84.13L305.77 84.53L306.27 84.94L306.77 85.35L307.25 85.77L307.73 86.2L308.21 86.63L308.68 87.07L309.14 87.52L309.6 87.97L310.05 88.42L310.5 88.88L310.94 89.35L311.37 89.82L311.8 90.29L312.22 90.78L312.64 91.26L313.05 91.75L313.45 92.25L313.85 92.75L314.24 93.26L314.62 93.77L315 94.29L315.37 94.81L315.73 95.33L316.09 95.86L316.44 96.39L316.79 96.93L317.13 97.48L317.46 98.02L317.78 98.57L318.1 99.13L318.41 99.69L318.72 100.26L319.02 100.83L319.31 101.41L319.6 101.99L319.88 102.57L320.15 103.16L320.42 103.75L320.68 104.34L320.93 104.94L321.17 105.54L321.41 106.14L321.64 106.74L321.86 107.35L322.07 107.96L322.28 108.57L322.47 109.18L322.67 109.8L322.85 110.42L323.02 111.04L323.19 111.66L323.35 112.28L323.5 112.91L323.65 113.54L323.78 114.17L323.91 114.8L324.03 115.43L324.14 116.07L324.25 116.7L324.34 117.34L324.43 117.98L324.51 118.62L324.58 119.26L324.65 119.91L324.7 120.55L324.75 121.2L324.78 121.84L324.81 122.49L324.84 123.14L324.85 123.79L324.85 124.44L324.85 124.67L324.85 124.91L324.85 125.15L324.84 125.39L324.83 125.63L324.83 125.87L324.82 126.11L324.8 126.35L324.79 126.59L324.78 126.84L324.76 127.08L324.74 127.32L324.72 127.57L324.7 127.81L324.68 128.06L324.66 128.31L324.64 128.55L324.61 128.8L324.58 129.05L324.56 129.3L324.53 129.55L324.49 129.8L324.46 130.05L324.43 130.3L324.39 130.55L324.36 130.81L324.32 131.06L324.28 131.31L324.24 131.57L324.2 131.82L324.16 132.08L324.12 132.33L324.07 132.59L324.03 132.85L323.98 133.1L323.93 133.36L323.88 133.62L323.83 133.88L323.78 134.14L323.73 134.4L323.68 134.62L323.64 134.84L323.59 135.05L323.55 135.27L323.5 135.48L323.46 135.69L323.41 135.9L323.36 136.1L323.32 136.31L323.27 136.51L323.22 136.71L323.17 136.91L323.12 137.1L323.08 137.3L323.03 137.49L322.98 137.68L322.93 137.87L322.88 138.06L322.83 138.25L322.78 138.43L322.73 138.62L322.68 138.8L322.63 138.98L322.58 139.15L322.53 139.33L322.48 139.51L322.43 139.68L322.38 139.85L322.33 140.02L322.28 140.19L322.23 140.36L322.18 140.52L322.13 140.69L322.07 140.85L322.02 141.01L321.97 141.18L321.92 141.33L321.87 141.49L321.81 141.65L321.76 141.8L321.76 141.93L290.26 234.82L289.65 236.29L289.36 237.01L289.06 237.72L288.75 238.43L288.43 239.12L288.1 239.82L287.76 240.5L287.41 241.18L287.05 241.86L286.68 242.52L286.3 243.18L285.92 243.84L285.52 244.48L285.11 245.12L284.7 245.75L284.27 246.38L283.84 247L283.4 247.61L282.95 248.21L282.49 248.81L282.03 249.4L281.55 249.98L281.07 250.55L280.58 251.12L280.08 251.68L279.57 252.23L279.05 252.77L278.53 253.3L278 253.83L277.47 254.35L276.92 254.86L276.37 255.36L275.81 255.86L275.24 256.35L274.67 256.82L274.09 257.29L273.5 257.75L272.91 258.2L272.31 258.65L271.71 259.08L271.09 259.51L270.47 259.93L269.84 260.34L269.2 260.74L268.56 261.14L267.91 261.52L267.26 261.9L266.61 262.26L265.95 262.62L265.28 262.96L264.61 263.3L263.93 263.62L263.25 263.94L262.57 264.24L261.88 264.54L261.19 264.82L260.49 265.1L259.79 265.36L259.09 265.61L258.38 265.86L257.67 266.09L256.95 266.31L256.23 266.52L255.51 266.72L254.79 266.91L254.06 267.09L253.33 267.26L252.59 267.42L251.86 267.56L251.12 267.7L250.38 267.82L249.63 267.93L248.88 268.03L248.14 268.12L247.38 268.2L246.63 268.26L245.88 268.32L245.12 268.36L244.36 268.39L243.6 268.41L242.84 268.41L242.79 268.41L242.73 268.41L242.68 268.41L242.62 268.41L242.56 268.41L242.5 268.41L242.43 268.41L242.37 268.4L242.3 268.4L242.23 268.4L242.16 268.39L242.09 268.39L242.02 268.39L241.95 268.38L241.87 268.38L241.8 268.38L241.72 268.37L241.64 268.37L241.56 268.36L241.48 268.36L241.4 268.35L241.31 268.35L241.23 268.34L241.15 268.34L241.06 268.33L240.97 268.33L240.89 268.32L240.8 268.31L240.71 268.31L240.62 268.3L240.53 268.3L240.45 268.29L240.36 268.28L240.27 268.28L240.18 268.27L240.09 268.27L239.99 268.26L239.72 268.24L239.6 268.24L239.58 268.24L239.56 268.24L239.55 268.24L239.55 268.23L239.54 268.23L239.53 268.23L239.53 268.23L239.52 268.23L239.52 268.23L239.52 268.23L239.52 268.23L239.53 268.23L239.54 268.22L239.54 268.22L239.56 268.22L239.57 268.22L239.58 268.22L239.6 268.22L239.6 268.22L239.72 268.22L239.73 268.18L239.61 268.18L239.61 268.18L210.48 267.57L210.02 269.26L209.57 270.94L209.14 272.63L208.71 274.31L208.3 275.99L207.9 277.67L207.52 279.35L207.14 281.02L206.78 282.7L206.42 284.37L206.08 286.04L205.75 287.71L205.44 289.38L205.13 291.05L204.84 292.71L204.56 294.38L204.29 296.04L204.03 297.7L203.78 299.36L203.54 301.02L203.32 302.68L203.11 304.34L202.91 305.99L202.72 307.64L202.54 309.3L202.38 310.95L202.23 312.6L202.08 314.25L201.95 315.9L201.84 317.55L201.73 319.19L201.63 320.84L201.55 322.48L201.48 324.13L201.42 325.77L201.37 327.41L201.33 329.06L201.3 330.7L201.29 332.34L201.29 333.98L201.3 335.6L201.32 337.22L201.35 338.85L201.39 340.47L201.45 342.1L201.51 343.73L201.59 345.35L201.68 346.98L201.78 348.6L201.89 350.23L202.01 351.86L202.15 353.49L202.29 355.11L202.45 356.74L202.62 358.37L202.8 360L202.99 361.63L203.19 363.26L203.4 364.89L203.63 366.53L203.86 368.16L204.11 369.79L204.37 371.42L204.64 373.06L204.92 374.69L205.21 376.33L205.51 377.97L205.83 379.61L206.15 381.24L206.49 382.88L206.84 384.52L207.2 386.17L207.57 387.81L207.95 389.45L208.34 391.1L208.75 392.74L209.16 394.39L209.59 396.04L210.03 397.69L210.47 399.34L239.04 398.74L239.08 398.73L239.12 398.73L239.16 398.73L239.2 398.72L239.24 398.72L239.28 398.72L239.32 398.72L239.36 398.71L239.4 398.71L239.43 398.71L239.47 398.7L239.51 398.7L239.55 398.7L239.58 398.69L239.62 398.69L239.65 398.69L239.69 398.69L239.73 398.68L239.76 398.68L239.8 398.68L239.83 398.68L239.86 398.67L239.9 398.67L239.93 398.67L239.97 398.67L240 398.66L240.03 398.66L240.06 398.66L240.1 398.66L240.13 398.66L240.16 398.65L240.19 398.65L240.22 398.65L240.25 398.65L240.28 398.65L240.31 398.65L240.34 398.64L240.37 398.64L240.4 398.64L240.43 398.64L240.57 398.63L240.7 398.63L240.83 398.62L240.95 398.61L241.07 398.61L241.18 398.6L241.28 398.59L241.38 398.59L241.48 398.58L241.57 398.58L241.65 398.57L241.73 398.57L241.8 398.56L241.87 398.56L241.94 398.55L242 398.55L242.06 398.54L242.12 398.54L242.17 398.53L242.22 398.53L242.26 398.53L242.31 398.52L242.42 398.51L242.46 398.51L242.49 398.51L242.52 398.51L242.55 398.5L242.58 398.5L242.6 398.5L242.63 398.5L242.66 398.5L242.68 398.5L242.71 398.49L242.73 398.49L242.76 398.49L242.79 398.49L242.81 398.49L242.84 398.49L243.6 398.5L244.36 398.52L245.12 398.55L245.87 398.59L246.63 398.64L247.38 398.71L248.14 398.78L248.89 398.87L249.64 398.97L250.39 399.08L251.14 399.21L251.88 399.34L252.63 399.49L253.37 399.64L254.11 399.81L254.85 399.99L255.58 400.18L256.31 400.38L257.04 400.59L257.76 400.82L258.49 401.05L259.2 401.29L259.92 401.55L260.63 401.81L261.34 402.09L262.04 402.38L262.74 402.67L263.44 402.98L264.13 403.3L264.81 403.63L265.5 403.97L266.17 404.31L266.85 404.67L267.51 405.04L268.18 405.42L268.83 405.81L269.48 406.2L270.13 406.61L270.77 407.03L271.4 407.46L272.04 407.9L272.67 408.36L273.3 408.82L273.92 409.29L274.53 409.78L275.13 410.27L275.73 410.77L276.32 411.28L276.9 411.8L277.47 412.33L278.04 412.87L278.59 413.41L279.14 413.97L279.68 414.53L280.21 415.1L280.73 415.68L281.25 416.27L281.75 416.87L282.24 417.48L282.73 418.09L283.21 418.72L283.67 419.35L284.13 419.99L284.58 420.64L285.01 421.3L285.44 421.96L285.85 422.63L286.26 423.31L286.65 424L287.04 424.7L287.41 425.4L287.77 426.12L288.13 426.83L288.46 427.56L288.79 428.3L289.11 429.04L289.41 429.79L289.71 430.55L289.99 431.31L290.26 432.08L321.76 524.98L321.72 524.99L321.79 525.19L321.86 525.39L321.93 525.58L322 525.78L322.07 525.98L322.13 526.17L322.2 526.37L322.26 526.57L322.33 526.76L322.39 526.96L322.45 527.16L322.52 527.36L322.58 527.55L322.64 527.75L322.7 527.95L322.75 528.14L322.81 528.34L322.87 528.54L322.92 528.73L322.98 528.93L323.03 529.13L323.09 529.32L323.14 529.52L323.19 529.72L323.24 529.92L323.29 530.11L323.34 530.31L323.39 530.51L323.43 530.7L323.48 530.9L323.53 531.1L323.57 531.29L323.61 531.49L323.66 531.68L323.7 531.88L323.74 532.08L323.78 532.27L323.82 532.47L323.86 532.67L323.9 532.86L323.94 533.11L323.99 533.36L324.03 533.61L324.08 533.86L324.12 534.11L324.16 534.35L324.2 534.6L324.24 534.85L324.28 535.09L324.31 535.34L324.35 535.58L324.38 535.83L324.42 536.07L324.45 536.32L324.48 536.56L324.51 536.8L324.54 537.05L324.56 537.29L324.59 537.53L324.61 537.77L324.64 538.01L324.66 538.25L324.68 538.49L324.7 538.73L324.72 538.97L324.74 539.2L324.75 539.44L324.77 539.68L324.78 539.91L324.79 540.15L324.81 540.38L324.82 540.62L324.82 540.85L324.83 541.08L324.84 541.32L324.84 541.55L324.85 541.78L324.85 542.01L324.85 542.24L324.85 542.47L324.85 543.12L324.84 543.77L324.82 544.41L324.79 545.06L324.75 545.71L324.7 546.35L324.65 547L324.58 547.64L324.51 548.28L324.43 548.92L324.35 549.56L324.25 550.2L324.15 550.84L324.03 551.47L323.91 552.11L323.78 552.74L323.65 553.37L323.5 554L323.35 554.62L323.19 555.25L323.03 555.87L322.85 556.49L322.67 557.11L322.48 557.72L322.28 558.34L322.07 558.95L321.86 559.56L321.64 560.16L321.41 560.77L321.17 561.37L320.93 561.97L320.68 562.56L320.42 563.15L320.16 563.74L319.88 564.33L319.6 564.92L319.32 565.5L319.02 566.07L318.72 566.65L318.41 567.22L318.1 567.78L317.78 568.33L317.46 568.88L317.13 569.43L316.79 569.97L316.44 570.51L316.09 571.05L315.74 571.57L315.37 572.1L315 572.62L314.62 573.14L314.24 573.65L313.85 574.15L313.45 574.66L313.05 575.15L312.64 575.64L312.22 576.13L311.8 576.61L311.38 577.09L310.94 577.56L310.5 578.03L310.05 578.49L309.6 578.94L309.14 579.39L308.68 579.83L308.21 580.27L307.73 580.71L307.25 581.13L306.77 581.55L306.27 581.97L305.77 582.38L305.27 582.78L304.76 583.18L304.24 583.57L303.72 583.95L303.19 584.33L302.66 584.7L302.12 585.06L301.58 585.42L301.03 585.78L227.55 632.23L227.25 632.41L226.95 632.6L226.64 632.79L226.34 632.97L226.03 633.15L225.72 633.33L225.41 633.5L225.1 633.68L224.79 633.85L224.48 634.02L224.17 634.18L223.85 634.35L223.54 634.51L223.22 634.67L222.91 634.83L222.59 634.98L222.27 635.14L221.95 635.29L221.63 635.44L221.31 635.58L220.99 635.73L220.66 635.87L220.34 636.01L220.01 636.14L219.69 636.28L219.36 636.41L219.04 636.54L218.71 636.67L218.38 636.79L218.05 636.91L217.72 637.03L217.39 637.15L217.06 637.27L216.73 637.38L216.39 637.49L216.06 637.6L215.72 637.71L215.39 637.81L215.05 637.91L214.72 638.01L214.38 638.11L214.04 638.2L213.7 638.29L213.36 638.38L213.01 638.47L212.67 638.56L212.33 638.64L211.99 638.72L211.64 638.8L211.3 638.87L210.96 638.95L210.61 639.02L210.27 639.09L209.92 639.15L209.58 639.22L209.23 639.28L208.88 639.34L208.54 639.39L208.19 639.45L207.84 639.5L207.5 639.55L207.15 639.59L206.8 639.64L206.45 639.68L206.1 639.72L205.76 639.75L205.41 639.79L205.06 639.82L204.71 639.85L204.36 639.87L204.01 639.9L203.66 639.92L203.31 639.94L202.96 639.95L202.61 639.97L202.26 639.98L201.91 639.99L201.56 639.99L201.21 640L200.86 640L199.37 639.99L197.93 639.94L196.52 639.87L195.16 639.77L193.84 639.64L192.55 639.49L191.31 639.31L190.1 639.1L188.93 638.87L187.79 638.62L186.69 638.34L185.61 638.04L184.57 637.72L183.55 637.37L182.57 637.01L181.6 636.62L180.67 636.22L179.76 635.79L178.87 635.34L178 634.88L177.15 634.4L176.32 633.9L175.51 633.39L174.71 632.86L173.93 632.31L173.16 631.75L172.41 631.18L171.67 630.59L170.93 629.99L170.2 629.38L169.49 628.76L168.77 628.12L168.06 627.48L167.36 626.82L166.65 626.16L165.95 625.48L165.25 624.8L164.54 624.11L163.83 623.42L163.12 622.72L163.03 622.63L163.01 622.61L162.99 622.58L162.96 622.56L162.91 622.51L162.86 622.46L162.81 622.41L162.78 622.38L162.75 622.35L162.72 622.32L162.69 622.29L162.66 622.26L162.62 622.23L162.59 622.2L162.55 622.16L162.51 622.12L162.47 622.09L162.43 622.05L162.39 622.01L162.35 621.96L162.3 621.92L162.25 621.87L162.21 621.83L162.15 621.78L162.1 621.73L162.05 621.67L161.99 621.62L161.93 621.56L161.87 621.5L161.8 621.44L161.74 621.38L161.67 621.31L161.6 621.24L161.52 621.17L160.91 620.59L160.31 620.01L159.7 619.42L159.1 618.84L158.49 618.25L157.89 617.67L157.3 617.08L156.7 616.5L156.1 615.91L155.51 615.33L154.92 614.74L154.33 614.15L153.75 613.57L153.16 612.98L152.58 612.39L152 611.8L151.42 611.22L150.84 610.63L150.27 610.04L149.69 609.45L149.12 608.86L148.55 608.27L147.99 607.68L147.42 607.09L146.86 606.5L146.3 605.91L145.74 605.32L145.18 604.73L144.62 604.14L144.07 603.55L143.52 602.96L142.97 602.37L142.42 601.78L141.87 601.19L141.33 600.59L140.79 600L140.25 599.41L139.71 598.82L139.17 598.22L138.64 597.63L133.5 591.81L128.5 585.92L123.62 579.97L118.88 573.96L114.26 567.88L109.78 561.75L105.43 555.56L101.2 549.32L97.11 543.02L93.15 536.66L89.32 530.26L85.63 523.81L82.06 517.31L78.62 510.77L75.32 504.18L72.15 497.55L69.1 490.88L66.19 484.17L63.41 477.43L60.76 470.64L58.25 463.83L55.86 456.98L53.6 450.11L51.48 443.2L49.49 436.27L47.63 429.31L45.9 422.33L44.3 415.33L42.83 408.31L41.5 401.27L40.29 394.21L39.22 387.14L38.28 380.05L37.47 372.96L36.79 365.85L36.25 358.74L35.84 351.62L35.55 344.49L35.4 337.36L35.38 330.23L35.5 323.09L35.74 315.96L36.12 308.83L36.63 301.7L37.27 294.59L38.04 287.48L38.94 280.39L39.98 273.31L41.15 266.24L42.45 259.19L43.88 252.16L45.44 245.15L47.14 238.16L48.97 231.2L50.93 224.26L53.02 217.35L55.25 210.47L57.61 203.61L60.1 196.79L62.72 190.01L65.47 183.26L68.36 176.54L71.38 169.87L74.53 163.23L77.81 156.64L81.23 150.09L84.78 143.59L88.46 137.13L92.28 130.73L96.22 124.37L100.3 118.07L104.51 111.82L108.86 105.63L113.33 99.5L117.94 93.42L122.69 87.41L127.56 81.45L132.57 75.57L137.71 69.75L142.98 63.99L143.52 63.42L144.06 62.84L144.6 62.27L145.14 61.7L145.69 61.12L146.23 60.55L146.77 59.99L147.32 59.42L147.86 58.85L148.41 58.29L148.95 57.72L149.5 57.16L150.05 56.6L150.6 56.04L151.15 55.48L151.7 54.92L152.25 54.36L152.81 53.81L153.36 53.25L153.91 52.7L154.47 52.15L155.02 51.59L155.58 51.04L156.14 50.5L156.7 49.95L157.25 49.4L157.81 48.86L158.38 48.31L158.94 47.77L159.5 47.23L160.06 46.69L160.63 46.15L161.19 45.61L161.76 45.08L162.32 44.54L162.89 44.01L163.46 43.47L164.03 42.94L164.59 42.41L165.16 41.88L165.15 41.87L165.78 41.25L166.41 40.64L167.06 40.04L167.71 39.46L168.37 38.88L169.04 38.33L169.72 37.78L170.4 37.25L171.09 36.73L171.79 36.23L172.5 35.74L173.21 35.26L173.93 34.79L174.66 34.34L175.39 33.9L176.13 33.48L176.88 33.06L177.63 32.66L178.38 32.28L179.15 31.91L179.91 31.55L180.68 31.2L181.46 30.87L182.24 30.55L183.03 30.25L183.82 29.95L184.62 29.67L185.42 29.41L186.22 29.16L187.03 28.92L187.84 28.69L188.65 28.48L189.47 28.29L190.29 28.1L191.11 27.93L191.94 27.77L192.76 27.63L193.59 27.5L194.42 27.38L195.26 27.28L196.08 27.19L196.91 27.12L197.74 27.06L198.57 27.01L199.4 26.98L200.23 26.96L201.06 26.95L201.89 26.96L202.72 26.99ZM201.49 93.27L201.12 93.62L200.75 93.98L200.38 94.34L200.02 94.7L199.65 95.05L199.28 95.41L198.92 95.77L198.55 96.13L198.19 96.49L197.83 96.84L197.47 97.2L197.11 97.56L196.75 97.92L196.39 98.27L196.03 98.63L195.68 98.99L195.32 99.35L194.96 99.71L194.61 100.07L194.26 100.42L193.91 100.78L193.55 101.14L193.2 101.5L192.86 101.86L192.51 102.22L192.16 102.58L191.81 102.94L191.47 103.29L191.12 103.65L190.78 104.01L190.44 104.37L190.1 104.73L189.75 105.09L189.41 105.45L189.08 105.81L188.74 106.17L188.4 106.53L188.06 106.89L183.61 111.75L179.27 116.66L175.04 121.63L170.92 126.65L166.91 131.72L163.02 136.84L159.24 142.01L155.57 147.23L152.01 152.49L148.57 157.8L145.23 163.15L142.01 168.54L138.9 173.97L135.9 179.44L133.02 184.95L130.25 190.49L127.58 196.07L125.03 201.67L122.6 207.31L120.27 212.98L118.05 218.68L115.95 224.41L113.96 230.16L112.08 235.93L110.31 241.73L108.66 247.55L107.11 253.39L105.68 259.25L104.36 265.13L103.15 271.02L102.05 276.92L101.06 282.84L100.19 288.77L99.43 294.71L98.77 300.66L98.23 306.61L97.8 312.57L97.49 318.54L97.28 324.51L97.19 330.48L97.2 336.46L97.33 342.44L97.57 348.41L97.92 354.39L98.38 360.36L98.95 366.33L99.64 372.28L100.43 378.23L101.34 384.17L102.36 390.1L103.48 396.01L104.72 401.91L106.07 407.8L107.54 413.66L109.11 419.51L110.79 425.34L112.59 431.14L114.49 436.93L116.51 442.69L118.64 448.42L120.88 454.13L123.23 459.8L125.69 465.45L128.26 471.07L130.94 476.65L133.73 482.2L136.63 487.71L139.65 493.18L142.77 498.62L146.01 504.02L149.35 509.37L152.81 514.69L156.38 519.95L160.06 525.18L163.85 530.35L167.74 535.48L171.75 540.55L175.87 545.58L180.11 550.55L184.45 555.47L184.89 555.96L185.33 556.44L185.77 556.93L186.21 557.41L186.65 557.9L187.09 558.38L187.53 558.86L187.98 559.34L188.42 559.82L188.87 560.3L189.31 560.78L189.76 561.26L190.2 561.73L190.65 562.21L191.1 562.68L191.55 563.15L192 563.62L192.44 564.1L192.9 564.57L193.35 565.03L193.8 565.5L194.25 565.97L194.7 566.43L195.16 566.9L195.61 567.36L196.06 567.82L196.52 568.29L196.98 568.75L197.43 569.21L197.89 569.66L198.35 570.12L198.8 570.58L199.26 571.03L199.72 571.49L200.18 571.94L200.64 572.39L201.1 572.85L201.57 573.3L202.03 573.74L202.49 574.19L260.47 537.54L234.64 461.36L166.58 462.78L159.02 441.61L158.06 438.91L157.13 436.2L156.22 433.5L155.34 430.81L154.48 428.11L153.64 425.41L152.83 422.72L152.04 420.02L151.28 417.33L150.54 414.64L149.82 411.95L149.13 409.26L148.46 406.57L147.81 403.88L147.19 401.2L146.6 398.51L146.02 395.82L145.47 393.14L144.95 390.45L144.45 387.77L143.97 385.08L143.51 382.4L143.08 379.71L142.68 377.02L142.3 374.34L141.94 371.65L141.61 368.97L141.3 366.28L141.01 363.59L140.75 360.9L140.52 358.22L140.31 355.53L140.12 352.84L139.95 350.15L139.82 347.45L139.7 344.76L139.61 342.07L139.54 339.37L139.5 336.67L139.49 333.98L139.49 331.28L139.52 328.59L139.58 325.9L139.66 323.2L139.76 320.51L139.89 317.81L140.05 315.12L140.23 312.42L140.43 309.72L140.66 307.02L140.91 304.33L141.19 301.63L141.49 298.92L141.81 296.22L142.16 293.52L142.54 290.81L142.94 288.11L143.37 285.4L143.82 282.69L144.29 279.98L144.79 277.27L145.31 274.55L145.86 271.84L146.44 269.12L147.04 266.4L147.66 263.68L148.31 260.95L148.98 258.22L149.68 255.49L150.4 252.76L151.15 250.03L151.92 247.29L152.72 244.55L153.55 241.81L154.4 239.07L155.27 236.32L156.17 233.57L157.09 230.81L158.04 228.05L159.02 225.29L166.58 204.12L234.64 205.54L260.47 129.36L202.24 92.55L201.87 92.91L201.49 93.27ZM243.33 461.12L243.33 461.12L243.1 461.13L243.1 461.14L243.11 461.15L243.11 461.17L243.11 461.18L243.42 461.15L243.64 461.13L243.65 461.13L243.33 461.14L243.33 461.14L243.47 461.13L243.72 461.1L243.89 461.09L243.81 461.09L243.33 461.12ZM239.72 268.21L239.72 268.22L240.26 268.21L240.77 268.21L240.91 268.21L240.29 268.19L239.73 268.18L239.72 268.21L239.72 268.21ZM243.1 205.7L243.12 205.71L243.13 205.72L243.8 205.73L243.03 205.68L243.07 205.69L243.1 205.7Z" id="ag9qSGvKQ"></path><path d="M488.49 50.5C477.98 36.9 480.37 17.25 493.82 6.63C507.27 -4 526.7 -1.59 537.2 12.02C545.22 22.35 568.28 54.98 583.18 101.81C592 129.56 598.09 162.46 596.76 199.04C595.83 224.83 593.03 252.6 583.66 282.26C574.17 312.31 558.2 343.46 531.15 374.96C519.98 388.03 500.44 389.45 487.53 378.15C474.61 366.85 473.2 347.09 484.38 334.03C505.43 309.51 517.67 285.87 524.77 263.38C532 240.51 534.19 218.01 534.96 196.84C535.99 168.42 531.21 142.71 524.29 120.93C512.43 83.67 494.65 58.45 488.49 50.5" id="aKvuBkv6F"></path><path d="M409.08 98.71C396.53 86.97 395.77 67.17 407.38 54.48C418.99 41.79 438.57 41.02 451.12 52.76C459.66 60.75 482.58 85.73 497.2 121.19C506.17 142.96 512.32 168.94 510.87 198.02C509.89 217.71 507.86 238.96 498.65 262.37C489.38 285.91 473.39 310.09 444.94 334.1C431.79 345.23 412.21 343.47 401.2 330.17C390.2 316.87 391.94 297.07 405.09 285.94C424.75 269.35 435.34 253.81 441.06 239.27C446.83 224.61 448.19 209.42 448.91 195.07C449.83 176.54 445.77 159.62 439.85 145.27C429.6 120.39 414.62 103.89 409.08 98.71" id="d2I3qYvt3L"></path><path d="M348.5 164.61C335.88 152.87 335.07 133.01 346.68 120.25C358.28 107.49 377.92 106.67 390.54 118.41C394.99 122.58 406.93 135.56 414.44 153.78C419.11 165.12 422.32 178.73 421.55 194.06C421.06 203.93 420.01 214.66 415.12 227.09C410.18 239.64 401.86 252.36 387.29 264.65C374.14 275.78 354.56 274.02 343.56 260.72C332.55 247.42 334.29 227.61 347.44 216.48C353.22 211.61 356.14 207.54 357.53 203.99C358.98 200.31 359.36 195.64 359.59 191.12C359.83 186.32 358.71 181.79 357.09 177.86C354.09 170.56 350 166.01 348.5 164.61" id="c187pmfOek"></path></defs><g><g><g><use xlink:href="#ag9qSGvKQ" opacity="1" fill="#fb873e" fill-opacity="1"></use><g><use xlink:href="#ag9qSGvKQ" opacity="1" fill-opacity="0" stroke="#000000" stroke-width="1" stroke-opacity="0"></use></g></g><g><use xlink:href="#aKvuBkv6F" opacity="1" fill="#000000" fill-opacity="1"></use><g><use xlink:href="#aKvuBkv6F" opacity="1" fill-opacity="0" stroke="#000000" stroke-width="1" stroke-opacity="0"></use></g></g><g><use xlink:href="#d2I3qYvt3L" opacity="1" fill="#000000" fill-opacity="1"></use><g><use xlink:href="#d2I3qYvt3L" opacity="1" fill-opacity="0" stroke="#000000" stroke-width="1" stroke-opacity="0"></use></g></g><g><use xlink:href="#c187pmfOek" opacity="1" fill="#000000" fill-opacity="1"></use><g><use xlink:href="#c187pmfOek" opacity="1" fill-opacity="0" stroke="#000000" stroke-width="1" stroke-opacity="0"></use></g></g></g></g></svg>