<?xml version="1.0" encoding="utf-8"?>
<!-- Generator: Adobe Illustrator 23.0.3, SVG Export Plug-In . SVG Version: 6.00 Build 0)  -->
<svg version="1.1" id="Слой_1" xmlns="http://www.w3.org/2000/svg" xmlns:xlink="http://www.w3.org/1999/xlink" x="0px" y="0px"
	 viewBox="0 0 900 340" style="enable-background:new 0 0 900 340;" xml:space="preserve">
<style type="text/css">
	.st0{fill:#B1B4B5;}
	.st1{fill:#F79F1A;}
	.st2{fill:#FF5F01;}
	.st3{fill:#EA001B;}
	.st4{enable-background:new    ;}
	.st5{fill-rule:evenodd;clip-rule:evenodd;fill:#005BAC;}
	.st6{fill-rule:evenodd;clip-rule:evenodd;fill:#F6AC1D;}
</style>
<g id="Layer_1">
</g>
<g>
	<path class="st0" d="M829.4,28c19.4,0,35.2,15.8,35.2,35.2v213.6c0,19.4-15.8,35.2-35.2,35.2H520.7c-19.4,0-35.2-15.8-35.2-35.2
		V63.2c0-19.4,15.8-35.2,35.2-35.2H829.4 M829.4,23H520.7c-22.2,0-40.2,18-40.2,40.2v213.6c0,22.2,18,40.2,40.2,40.2h308.7
		c22.2,0,40.2-18,40.2-40.2V63.2C869.6,41,851.6,23,829.4,23L829.4,23z"/>
</g>
<g id="_x32_06-mastercard_x2C__Credit_card">
	<g>
		<g>
			<path class="st1" d="M290,87.9c45.4,0,82.1,36.8,82.1,82.1s-36.8,82.1-82.1,82.1c-26.4,0-49.8-12.4-64.9-31.7
				c10.8-13.9,17.3-31.4,17.3-50.4c0-19-6.5-36.5-17.3-50.4C240.1,100.3,263.6,87.9,290,87.9z"/>
		</g>
		<g>
			<path class="st2" d="M225.1,119.6c10.8,13.9,17.3,31.4,17.3,50.4s-6.5,36.5-17.3,50.4c-10.8-13.9-17.3-31.4-17.3-50.4
				C207.8,151,214.3,133.5,225.1,119.6z"/>
		</g>
		<g>
			<path class="st3" d="M160.3,87.9c26.4,0,49.8,12.4,64.9,31.7c-10.8,13.9-17.3,31.4-17.3,50.4s6.5,36.5,17.3,50.4
				c-15,19.3-38.5,31.7-64.9,31.7c-45.4,0-82.1-36.8-82.1-82.1S114.9,87.9,160.3,87.9z"/>
		</g>
	</g>
	<polygon points="224.8,168.7 224.8,171.9 225.4,171.9 225.4,168.7 226.7,168.7 226.7,168.1 223.5,168.1 223.5,168.7 	"/>
	<g>
		<path d="M353.9,165.1c-5.7-7.5-20.6-3.5-20.6,9.6c0,13.4,15.5,17,20.6,9.6v3.2h5.5v-35.7h-5.5V165.1z M346.6,182.8
			c-4.7,0-7.7-3.6-7.7-8.1c0-4.5,3-8.1,7.7-8.1c4.6,0,7.7,3.6,7.7,8.1C354.3,179.4,351.2,182.8,346.6,182.8z"/>
		<path d="M147,165.1c-1.9-2.3-4.5-3.7-8.1-3.7c-7.1,0-12.6,5.7-12.6,13.3c0,7.7,5.5,13.3,12.6,13.3c3.6,0,6.2-1.3,8.1-3.7v3.2h5.5
			v-25.4H147V165.1z M139.7,182.8c-4.9,0-7.7-3.6-7.7-8.1c0-4.5,2.8-8.1,7.7-8.1c4.5,0,7.5,3.6,7.5,8.1
			C147.2,179.4,144.2,182.8,139.7,182.8z"/>
		<path d="M221,161.3c-7.3,0-12.6,5.5-12.6,13.3c0,14.2,15.6,16.5,23.3,9.8l-2.6-4.1c-5.4,4.4-13.5,4-15.1-3.4h19
			C233.1,165.7,228,161.3,221,161.3z M214.3,172.4c0.6-3.6,2.8-6,6.6-6c3.6,0,6,2.1,6.6,6H214.3z"/>
		<path d="M302.6,165.1c-5.7-7.6-20.6-3.3-20.6,9.6c0,13.3,15.5,17.1,20.6,9.6v3.2h5.7v-25.4h-5.7V165.1z M295.3,182.8
			c-4.7,0-7.5-3.6-7.5-8.1c0-4.5,2.8-8.1,7.5-8.1s7.7,3.6,7.7,8.1C303,179.4,300,182.8,295.3,182.8z"/>
		<path d="M111.3,161.4c-3.2,0-6.6,1-8.8,4.5c-1.7-2.8-4.5-4.5-8.4-4.5c-2.6,0-5.2,1-7.3,3.7v-3h-5.7v25.3h5.7
			c0-13.1-1.7-20.9,6.2-20.9c7,0,5.7,7,5.7,20.9h5.5c0-12.6-1.7-20.9,6.2-20.9c7,0,5.7,6.9,5.7,20.9h5.7v-15.9h-0.1
			C121.5,165.5,117.5,161.6,111.3,161.4z"/>
		<path d="M164.6,169.3c0-3.9,8.2-3.3,12.8-0.8l2.3-4.5c-6.5-4.2-20.9-4.1-20.9,5.7c0,9.9,15.8,5.7,15.8,10.4c0,4.4-9.3,4-14.3,0.6
			l-2.4,4.4c7.7,5.2,22.5,4.1,22.5-5.2C180.4,169.4,164.6,174.1,164.6,169.3z"/>
		<path d="M194.9,178.7v-11.5h9v-5.1h-9v-7.7h-5.7v7.7H184v5h5.2v11.5c0,12.2,11.9,9.9,15.6,7.5l-1.5-4.7
			C200.7,182.9,194.9,184.5,194.9,178.7z"/>
		<path d="M244.4,165.1v-3h-5.7v25.3h5.7v-14.3c0-8,6.6-7,8.8-5.8l1.7-5.2C251.7,160.7,246.9,160.8,244.4,165.1z"/>
		<path d="M276.5,168.9l2.6-4.5c-8-6.3-22.6-2.8-22.6,10.4c0,13.7,15.5,16.4,22.6,10.4l-2.6-4.5c-6.4,4.5-14.3,1.8-14.3-5.9
			C262.2,166.8,270.2,164.3,276.5,168.9z"/>
		<path d="M321,165.1v-3h-5.5v25.3h5.5v-14.3c0-7.6,6.2-7.1,8.8-5.8l1.7-5.2C329.9,161.3,323.9,160.1,321,165.1z"/>
		<path d="M369,184.3c-0.2-0.2-0.3-0.6-0.6-0.8s-0.6-0.3-0.8-0.6c-0.3,0-0.8-0.2-1.1-0.2c-0.2,0-0.6,0.2-1,0.2
			c-0.3,0.2-0.6,0.3-0.8,0.6c-0.3,0.2-0.6,0.6-0.6,0.8c-0.2,0.3-0.2,0.8-0.2,1.1c0,0.2,0,0.6,0.2,1c0,0.2,0.2,0.6,0.6,0.8
			c0.2,0.2,0.3,0.3,0.8,0.6c0.3,0.2,0.8,0.2,1,0.2c0.3,0,0.8,0,1.1-0.2c0.2-0.2,0.6-0.3,0.8-0.6c0.2-0.2,0.3-0.6,0.6-0.8
			c0.2-0.4,0.2-0.8,0.2-1C369.2,185.1,369.2,184.7,369,184.3z"/>
	</g>
	<polygon points="227.2,168.1 226.2,168.1 225.1,170.6 224,168.1 223.1,168.1 223.1,171.9 223.6,171.9 223.6,169 224.7,171.5 
		225.5,171.5 226.4,169 226.4,171.9 227.2,171.9 	"/>
</g>
<g>
	<path class="st0" d="M381.1,28c19.4,0,35.2,15.8,35.2,35.2v213.6c0,19.4-15.8,35.2-35.2,35.2H72.4c-19.4,0-35.2-15.8-35.2-35.2
		V63.2C37.2,43.8,52.9,28,72.4,28H381.1 M381.1,23H72.4c-22.2,0-40.2,18-40.2,40.2v213.6c0,22.2,18,40.2,40.2,40.2h308.7
		c22.2,0,40.2-18,40.2-40.2V63.2C421.3,41,403.3,23,381.1,23L381.1,23z"/>
</g>
<g id="Layer_1_1_">
</g>
<g id="形状_1_3_" class="st4">
	<g id="形状_1">
		<g>
			<path class="st5" d="M641.8,135.8l-15.3,94H651l15.3-94H641.8L641.8,135.8z M606,135.8l-23.3,64.6l-2.8-13.9l0,0l-0.6-3.1
				c-2.8-6.1-9.4-17.7-21.7-27.5c-3.7-2.9-7.3-5.4-10.9-7.5l21.2,81.4h25.5l38.9-94H606L606,135.8z M701.5,161.9
				c0-10.6,23.8-9.3,34.3-3.5l3.5-20.2c0,0-10.8-4.1-22-4.1c-12.1,0-41,5.3-41,31.1c0,24.3,33.8,24.6,33.8,37.3
				c0,12.8-30.4,10.5-40.4,2.4l-3.6,21.1c0,0,10.9,5.3,27.6,5.3c16.7,0,41.9-8.7,41.9-32.2C735.6,174.8,701.5,172.6,701.5,161.9z
				 M801.3,135.8h-19.7c-9.1,0-11.3,7-11.3,7l-36.5,87h25.5l5.1-14h31.1l2.9,14h22.5L801.3,135.8z M771.5,196.6l12.9-35.2l7.2,35.2
				H771.5z"/>
		</g>
	</g>
</g>
<g id="形状_1_2_" class="st4">
	<g id="形状_1_1_">
		<g>
			<path class="st6" d="M572,144.7c0,0-1-8.5-11.8-8.5h-39.3l-0.5,1.6c0,0,18.9,3.8,37,18.3c17.3,13.8,23,31,23,31L572,144.7z"/>
		</g>
	</g>
</g>
</svg>
