<?xml version="1.0" encoding="UTF-8"?>
<!DOCTYPE svg PUBLIC "-//W3C//DTD SVG 1.0//EN" "http://www.w3.org/TR/2001/REC-SVG-20010904/DTD/svg10.dtd">
<!-- Creator: CorelDRAW X8 -->
<svg xmlns="http://www.w3.org/2000/svg" xml:space="preserve" width="2480px" height="3508px" version="1.0" style="shape-rendering:geometricPrecision; text-rendering:geometricPrecision; image-rendering:optimizeQuality; fill-rule:evenodd; clip-rule:evenodd"
viewBox="0 0 2480 3507"
 xmlns:xlink="http://www.w3.org/1999/xlink">
 <defs>
  <style type="text/css">
   <![CDATA[
    .str0 {stroke:#FB873E;stroke-width:15.9984}
    .str1 {stroke:#2B2A29;stroke-width:19.9971;stroke-linecap:round;stroke-linejoin:round}
    .fil0 {fill:none}
    .fil1 {fill:#2B2A29}
    .fil2 {fill:#2B2A29;fill-rule:nonzero}
   ]]>
  </style>
 </defs>
 <g id="Слой_x0020_1">
  <metadata id="CorelCorpID_0Corel-Layer"/>
  <circle class="fil0 str0" cx="1254" cy="1305" r="143"/>
  <path class="fil1" d="M1582 1238l51 52 52 -52c4,-4 11,-4 15,0l0 0c4,4 4,11 0,15l-52 52 52 52c4,4 4,11 0,15l0 0c-4,4 -11,4 -15,0l-52 -52 -51 52c-5,4 -11,4 -16,0l0 0c-4,-4 -4,-11 0,-15l52 -52 -52 -52c-4,-4 -4,-11 0,-15l0 0c5,-4 11,-4 16,0z"/>
  <polyline class="fil0 str1" points="1566,1238 1633,1305 1566,1372 "/>
  <path class="fil2" d="M1214 1245c-4,-3 -4,-10 0,-14 4,-4 10,-4 14,0l67 67c4,4 4,10 0,14l-67 67c-4,4 -10,4 -14,0 -4,-4 -4,-11 0,-14l59 -60 -59 -60z"/>
  <circle class="fil0 str0" cx="667" cy="1305" r="143"/>
  <path class="fil2" d="M707 1245c4,-3 4,-10 0,-14 -4,-4 -10,-4 -14,0l-67 67c-4,4 -4,10 0,14l67 67c4,4 10,4 14,0 4,-4 4,-11 0,-14l-59 -60 59 -60z"/>
 </g>
</svg>
