<?xml version="1.0" encoding="UTF-8" standalone="no"?>
<!DOCTYPE svg PUBLIC "-//W3C//DTD SVG 1.1//EN" "http://www.w3.org/Graphics/SVG/1.1/DTD/svg11.dtd">
<svg version="1.1" xmlns="http://www.w3.org/2000/svg" xmlns:xlink="http://www.w3.org/1999/xlink" preserveAspectRatio="xMidYMid meet" viewBox="0 0 640 640" width="24" height="24"><defs><path d="M445.77 380.56L452.55 381.25L459.24 382.2L465.85 383.41L472.36 384.88L478.78 386.6L485.09 388.57L491.29 390.77L497.38 393.21L503.35 395.87L509.19 398.76L514.9 401.86L520.48 405.18L525.92 408.7L531.2 412.42L536.34 416.34L541.32 420.45L546.13 424.75L550.78 429.22L555.25 433.87L559.55 438.68L563.66 443.66L567.58 448.8L571.3 454.08L574.82 459.52L578.14 465.1L581.24 470.81L584.13 476.65L586.79 482.62L589.23 488.71L591.43 494.91L593.4 501.22L595.12 507.64L596.59 514.15L597.8 520.76L598.75 527.45L599.44 534.23L599.86 541.08L600 548L600 580L599.95 582.47L599.8 584.92L599.56 587.34L599.21 589.73L598.78 592.09L598.26 594.41L597.64 596.71L596.94 598.96L596.15 601.18L595.28 603.35L594.33 605.48L593.3 607.57L592.19 609.61L591.01 611.6L589.75 613.54L588.42 615.43L587.02 617.26L585.55 619.04L584.02 620.76L582.42 622.42L580.76 624.02L579.04 625.55L577.26 627.02L575.43 628.42L573.54 629.75L571.6 631.01L569.61 632.19L567.57 633.3L565.48 634.33L563.35 635.28L561.18 636.15L558.96 636.94L556.71 637.64L554.41 638.26L552.09 638.78L549.73 639.21L547.34 639.56L544.92 639.8L542.47 639.95L540 640L100 640L97.53 639.95L95.08 639.8L92.66 639.56L90.27 639.21L87.91 638.78L85.59 638.26L83.29 637.64L81.04 636.94L78.82 636.15L76.65 635.28L74.52 634.33L72.43 633.3L70.39 632.19L68.4 631.01L66.46 629.75L64.57 628.42L62.74 627.02L60.96 625.55L59.24 624.02L57.58 622.42L55.98 620.76L54.45 619.04L52.98 617.26L51.58 615.43L50.25 613.54L48.99 611.6L47.81 609.61L46.7 607.57L45.67 605.48L44.72 603.35L43.85 601.18L43.06 598.96L42.36 596.71L41.74 594.41L41.22 592.09L40.79 589.73L40.44 587.34L40.2 584.92L40.05 582.47L40 580L40 548L40.14 541.08L40.56 534.23L41.25 527.45L42.2 520.76L43.41 514.15L44.88 507.64L46.6 501.22L48.57 494.91L50.77 488.71L53.21 482.62L55.87 476.65L58.76 470.81L61.86 465.1L65.18 459.52L68.7 454.08L72.42 448.8L76.34 443.66L80.45 438.68L84.75 433.87L89.22 429.22L93.87 424.75L98.68 420.45L103.66 416.34L108.8 412.42L114.08 408.7L119.52 405.18L125.1 401.86L130.81 398.76L136.65 395.87L142.62 393.21L148.71 390.77L154.91 388.57L161.22 386.6L167.64 384.88L174.15 383.41L180.76 382.2L187.45 381.25L194.23 380.56L201.08 380.14L208 380L210.67 380.04L213.27 380.15L215.81 380.32L218.29 380.56L220.73 380.86L223.13 381.22L225.49 381.62L227.82 382.08L230.12 382.58L232.41 383.13L234.68 383.71L236.94 384.32L239.2 384.96L241.46 385.64L243.73 386.33L246.02 387.04L248.33 387.77L250.66 388.51L253.02 389.25L255.42 390L257.87 390.75L260.36 391.5L262.9 392.23L265.51 392.96L268.18 393.67L270.93 394.37L273.75 395.04L276.65 395.68L279.64 396.29L282.72 396.88L285.91 397.42L289.2 397.92L292.6 398.38L296.12 398.79L299.76 399.14L303.53 399.44L307.43 399.68L311.47 399.86L315.66 399.96L320 400L324.34 399.96L328.53 399.86L332.57 399.68L336.47 399.44L340.24 399.14L343.89 398.79L347.41 398.38L350.81 397.92L354.11 397.42L357.29 396.88L360.38 396.29L363.38 395.68L366.28 395.04L369.1 394.37L371.85 393.67L374.53 392.96L377.14 392.23L379.68 391.5L382.18 390.75L384.63 390L387.03 389.25L389.39 388.51L391.73 387.77L394.03 387.04L396.32 386.33L398.59 385.64L400.86 384.96L403.11 384.32L405.38 383.71L407.64 383.13L409.93 382.58L412.23 382.08L414.55 381.62L416.91 381.22L419.3 380.86L421.74 380.56L424.22 380.32L426.75 380.15L429.34 380.04L432 380L438.92 380.14L445.77 380.56ZM429.16 440.15L427.68 440.32L426.14 440.56L424.56 440.86L422.93 441.22L421.24 441.62L419.5 442.08L417.7 442.58L415.84 443.13L413.91 443.71L411.92 444.32L409.86 444.96L407.73 445.64L405.53 446.33L403.25 447.04L400.9 447.77L398.46 448.51L395.94 449.25L393.34 450L390.66 450.75L387.88 451.5L385.01 452.23L382.05 452.96L378.99 453.67L375.84 454.37L372.58 455.04L369.22 455.68L365.75 456.29L362.18 456.88L358.5 457.42L354.7 457.92L350.79 458.38L346.76 458.79L342.61 459.14L338.34 459.44L333.95 459.68L329.43 459.85L324.78 459.96L320 460L315.25 459.96L310.64 459.86L306.14 459.68L301.77 459.44L297.53 459.14L293.39 458.79L289.38 458.38L285.48 457.92L281.69 457.42L278.01 456.88L274.44 456.29L270.98 455.68L267.62 455.04L264.36 454.37L261.19 453.67L258.13 452.96L255.16 452.23L252.28 451.5L249.5 450.75L246.8 450L244.18 449.25L241.66 448.51L239.21 447.77L236.84 447.04L234.55 446.33L232.33 445.64L230.19 444.96L228.12 444.32L226.12 443.71L224.18 443.13L222.31 442.58L220.5 442.08L218.75 441.62L217.06 441.22L215.42 440.86L213.84 440.56L212.31 440.32L210.83 440.14L209.39 440.04L208 440L203.56 440.09L199.16 440.36L194.81 440.8L190.52 441.42L186.28 442.2L182.09 443.15L177.97 444.25L173.92 445.52L169.94 446.94L166.02 448.51L162.19 450.22L158.43 452.08L154.76 454.08L151.18 456.22L147.68 458.48L144.28 460.88L140.98 463.4L137.77 466.05L134.68 468.81L131.69 471.69L128.81 474.68L126.05 477.77L123.4 480.98L120.88 484.28L118.48 487.68L116.22 491.18L114.08 494.76L112.08 498.43L110.22 502.19L108.51 506.02L106.94 509.94L105.52 513.92L104.25 517.97L103.15 522.09L102.2 526.28L101.42 530.52L100.8 534.81L100.36 539.16L100.09 543.56L100 548L100 580L540 580L540 548L539.91 543.56L539.64 539.16L539.2 534.81L538.58 530.52L537.8 526.28L536.85 522.09L535.75 517.97L534.48 513.92L533.06 509.94L531.49 506.02L529.78 502.19L527.92 498.43L525.92 494.76L523.78 491.18L521.52 487.68L519.12 484.28L516.6 480.98L513.95 477.77L511.19 474.68L508.31 471.69L505.32 468.81L502.23 466.05L499.02 463.4L495.72 460.88L492.32 458.48L488.82 456.22L485.24 454.08L481.57 452.08L477.81 450.22L473.98 448.51L470.06 446.94L466.08 445.52L462.03 444.25L457.91 443.15L453.72 442.2L449.48 441.42L445.19 440.8L440.84 440.36L436.44 440.09L432 440L430.6 440.04L429.16 440.15Z" id="c1CbdOyOO9"></path><path d="M474.34 185.79C474.34 270.97 405.18 340.13 320 340.13C234.82 340.13 165.66 270.97 165.66 185.79C165.66 100.61 234.82 31.45 320 31.45C405.18 31.45 474.34 100.61 474.34 185.79Z" id="d4gmccjtV8"></path></defs><g><g><g><use xlink:href="#c1CbdOyOO9" opacity="1" fill="#000000" fill-opacity="1"></use><g><use xlink:href="#c1CbdOyOO9" opacity="1" fill-opacity="0" stroke="#000000" stroke-width="1" stroke-opacity="0"></use></g></g><g><g><use xlink:href="#d4gmccjtV8" opacity="1" fill-opacity="0" stroke="#fb873e" stroke-width="57" stroke-opacity="1"></use></g></g></g></g></svg>