<?xml version="1.0" standalone="no"?>
<!DOCTYPE svg PUBLIC "-//W3C//DTD SVG 1.1//EN" "http://www.w3.org/Graphics/SVG/1.1/DTD/svg11.dtd" >
<svg xmlns="http://www.w3.org/2000/svg" xmlns:xlink="http://www.w3.org/1999/xlink" version="1.1">
<metadata>
Created by FontForge 20160407 at Mon May 23 07:05:56 2016
 By Jimmy Wärting
Copyright (c) 2009 by Satori Type. All rights reserved.
</metadata>
<defs>
<font id="Tenge" horiz-adv-x="500" >
  <font-face 
    font-family="Tenge"
    font-weight="400"
    font-stretch="normal"
    units-per-em="1000"
    panose-1="0 0 0 0 0 0 0 0 0 0"
    ascent="750"
    descent="-250"
    x-height="727"
    cap-height="727"
    bbox="46 0 838 727"
    underline-thickness="150"
    underline-position="-292"
    unicode-range="U+0020-20B8"
  />
<missing-glyph 
 />
    <glyph glyph-name=".notdef" 
 />
    <glyph glyph-name=".null" horiz-adv-x="0" 
 />
    <glyph glyph-name="nonmarkingreturn" horiz-adv-x="333" 
 />
    <glyph glyph-name="space" unicode=" " 
 />
    <glyph glyph-name="A" unicode="A" horiz-adv-x="711" 
d="M60 478l17 82h563l-17 -82h-233l-100 -478h-96l99 478h-233zM655 631h-563l17 85h563z" />
    <glyph glyph-name="B" unicode="B" horiz-adv-x="762" 
d="M641 398h-212l-84 -398h-144l84 398h-213l26 121h569zM683 595h-569l26 121h569z" />
    <glyph glyph-name="C" unicode="C" horiz-adv-x="899" 
d="M461 0h-221l58 273h-226l37 177h672l-37 -177h-225zM800 539h-672l38 177h672z" />
    <glyph glyph-name="D" unicode="D" horiz-adv-x="603" 
d="M525 481h-194l-82 -481h-78l82 481h-193l14 85h465zM550 631h-465l15 85h465z" />
    <glyph glyph-name="E" unicode="E" horiz-adv-x="646" 
d="M538 397h-174l-67 -397h-118l67 397h-174l21 121h466zM572 595h-466l21 121h466z" />
    <glyph glyph-name="F" unicode="F" horiz-adv-x="781" 
d="M350 71q5 -14 19 -21q7 -3 35 -9q27 -6 43 -6l-8 -35h-327l8 35q4 0 17.5 1.5t23.5 2.5q31 3 41 7q33 11 43 50l103 446h-28q-45 0 -82 -4q-27 -4 -79 -59q-35 -38 -61 -87h-35l43 188h604l-43 -188h-34q0 38 -21 87q-22 53 -52 59q-27 4 -79 4h-29l-102 -441
q-4 -17 0 -30zM117 626l15 67h604l-15 -67h-604z" />
    <glyph glyph-name="G" unicode="G" horiz-adv-x="864" 
d="M784 559l-46 -198h-38q-5 44 -27 95q-21 51 -49 55q-6 0 -22.5 1.5t-31 2t-23.5 0.5h-23l-94 -409q-8 -39 19 -52q14 -7 71 -16l-8 -38h-386l8 38q39 4 41 4q28 3 37 7q35 14 43 52l95 414h-23q-12 0 -43 -2t-36 -2q-28 -4 -74 -55q-43 -48 -70 -95h-38l46 198h672z
M125 616l17 77h672l-17 -77h-672z" />
    <glyph glyph-name="J" unicode="J" horiz-adv-x="608" 
d="M268 468h-106l-24 -113q-2 -12 -14 -12h-44q-12 0 -10 12l37 171q2 12 14 12h406q12 0 10 -12l-37 -171q-2 -12 -13 -12h-46q-4 0 -5.5 0.5t-3 3t-0.5 8.5l24 113h-106l-92 -403h71q12 0 10 -12l-9 -41q-2 -12 -14 -12h-224q-12 0 -10 12l9 41q2 12 14 12h71zM146 655
h406q12 0 10 -12l-10 -46q-4 -12 -15 -12h-406q-13 0 -9 12l10 46q2 12 14 12z" />
    <glyph glyph-name="K" unicode="K" horiz-adv-x="692" 
d="M270 379h-73l-20 -96q-3 -17 -21 -17h-59q-13 0 -14.5 5t1.5 12l40 187l1 4q1 5 1.5 6t2.5 3.5t5.5 3t9.5 0.5h433q14 0 15 -8q0 -4 -1 -9l-40 -187q-3 -17 -21 -17h-59q-13 0 -14.5 5t1.5 12l20 96h-73l-66 -283h66h4h5t4 -1t3.5 -3.5t0.5 -6.5t-1 -10l-11 -54
q-1 -6 -3 -10t-3.5 -6.5t-5 -3.5t-4.5 -1h-5h-4h-267h-4h-5t-4.5 1t-3 3.5t-1.5 6.5t1 10l11 54q1 6 3.5 10t4 6.5t5 3.5t4.5 1h5h4h66zM184 655h425h4h5t4.5 -1t3 -3.5t1.5 -6.5t-1 -10l-14 -66q-1 -6 -3.5 -10t-4 -6.5t-5 -3.5t-4.5 -1h-5h-4h-425h-4h-5t-4 1t-3.5 3.5
t-0.5 6.5t1 10l14 66q1 6 3 10t3.5 6.5t5 3.5t4.5 1h5h4z" />
    <glyph glyph-name="L" unicode="L" horiz-adv-x="550" 
d="M200 12q-2 -12 -14 -12h-58q-12 0 -10 12l102 449h-149q-12 0 -10 12l10 46q2 12 15 12h394q5 0 7 -1t2.5 -3.5t0 -4l-1.5 -4.5l-1 -2l-12 -44q-5 -11 -18 -11h-155zM483 585h-386q-13 0 -9 12l10 46q2 12 14 12h394q17 0 7 -15l-11 -44q-7 -11 -19 -11z" />
    <glyph glyph-name="M" unicode="M" horiz-adv-x="648" 
d="M283 20q-4 -20 -24 -20h-96q-20 0 -16 20l75 325h-133q-12 0 -12 15l20 90q0 15 18 15h425q18 0 8 -41l-19 -63q-4 -16 -25 -16h-146zM545 535h-415q-16 0 -12 15l19 90q4 15 18 15h425q21 0 9 -41l-20 -63q-5 -16 -24 -16z" />
    <glyph glyph-name="N" unicode="N" horiz-adv-x="765" 
d="M302 0h-96l111 481h-260l19 86h616l-19 -86h-260zM709 641h-616l20 86h616z" />
    <glyph glyph-name="O" unicode="O" horiz-adv-x="852" 
d="M404 0h-188l82 357h-227l32 141h642l-32 -141h-227zM766 586h-642l32 141h642z" />
    <glyph glyph-name="P" unicode="P" horiz-adv-x="681" 
d="M186 115l122 416h-59q-48 0 -68 -7q-66 -22 -96 -107h-19l53 155h501l-38 -155h-19q8 41 3 58q-13 56 -91 56h-73l-122 -416q-18 -61 -9 -76q13 -21 51 -21h23l-5 -18h-280l5 18h23q42 0 67 25q14 16 31 72zM633 617h-501l13 45h501z" />
    <glyph glyph-name="Q" unicode="Q" horiz-adv-x="750" 
d="M114 522h555l-52 -179h-18q3 61 -8 89q-10 26 -40 43q-17 9 -63 9h-29l-108 -371q-15 -52 -14 -64q6 -31 58 -31h22l-5 -18h-346l5 18h22q29 0 49 10q15 8 27 24q8 11 23 61l108 371h-27q-68 0 -106 -28q-55 -42 -86 -113h-19zM691 597h-555l19 65h555z" />
    <glyph glyph-name="a" unicode="a" horiz-adv-x="672" 
d="M620 475h-237v-475h-95v475h-236v85h568v-85zM620 631h-568v85h568v-85z" />
    <glyph glyph-name="b" unicode="b" horiz-adv-x="704" 
d="M636 398h-212v-398h-144v398h-213v121h569v-121zM636 595h-569v121h569v-121z" />
    <glyph glyph-name="c" unicode="c" horiz-adv-x="821" 
d="M521 0h-221v273h-226v177h672v-177h-225v-273zM746 539h-672v177h672v-177z" />
    <glyph glyph-name="d" unicode="d" horiz-adv-x="567" 
d="M516 481h-194v-481h-78v481h-193v85h465v-85zM516 631h-465v85h465v-85z" />
    <glyph glyph-name="e" unicode="e" horiz-adv-x="601" 
d="M533 397h-174v-397h-118v397h-174v121h466v-121zM533 595h-466v121h466v-121z" />
    <glyph glyph-name="f" unicode="f" horiz-adv-x="721" 
d="M419 71q7 -13 24 -21q10 -3 37 -9q29 -6 44 -6v-35h-327v35q4 0 17.5 1.5t23.5 2.5q30 3 39 7q31 12 31 50v446h-28q-44 0 -81 -4q-27 -4 -65 -59q-31 -45 -41 -87h-35v188h604v-188h-34q-9 39 -41 87q-34 53 -66 59q-27 4 -80 4h-29v-441q0 -17 7 -30zM58 626v67h604
v-67h-604z" />
    <glyph glyph-name="g" unicode="g" horiz-adv-x="799" 
d="M735 559v-198h-38q-16 46 -49 95q-33 51 -61 55q-1 0 -33 2t-45 2h-23v-409q0 -38 31 -52q16 -8 75 -16v-38h-386v38q33 4 39 4q27 3 36 7q31 14 31 52v414h-23q-13 0 -45 -2t-33 -2q-28 -4 -62 -55q-33 -50 -48 -95h-38v198h672zM63 616v77h672v-77h-672z" />
    <glyph glyph-name="h" unicode="h" horiz-adv-x="684" 
d="M634 488h-244v-488h-96v488h-244v86h584v-86zM634 641h-584v86h584v-86z" />
    <glyph glyph-name="i" unicode="i" horiz-adv-x="751" 
d="M681 360h-215v-360h-182v360h-215v139h612v-139zM681 588h-612v139h612v-139z" />
    <glyph glyph-name="j" unicode="j" horiz-adv-x="555" 
d="M236 468h-106v-113q0 -12 -12 -12h-44q-12 0 -12 12v171q0 12 12 12h406q12 0 12 -12v-171q0 -12 -11 -12h-46h-4.5t-3 1.5t-2.5 4t-1 6.5v113h-106v-403h71q12 0 12 -12v-41q0 -12 -12 -12h-224q-12 0 -12 12v41q0 12 12 12h71v403zM74 655h406q12 0 12 -12v-46
q0 -12 -12 -12h-406q-12 0 -12 12v46q0 12 12 12z" />
    <glyph glyph-name="k" unicode="k" horiz-adv-x="630" 
d="M248 379h-73v-96q0 -8 -3 -12t-5.5 -4.5t-6.5 -0.5h-2h-59q-8 0 -12 2t-4.5 4.5t-0.5 7.5v3v187v3.5v3.5t0.5 3t1.5 3t3 2t5 1.5t7 0.5h433q14 0 16 -8q1 -4 1 -9v-187q0 -8 -3 -12t-5.5 -4.5t-6.5 -0.5h-2h-59q-8 0 -12 2t-4.5 4.5t-0.5 7.5v3v96h-73v-283h66h4h5t4 -1
t4.5 -3.5t2.5 -6.5t1 -10v-54q0 -6 -1 -10t-2.5 -6.5t-4.5 -3.5t-4 -1h-5h-4h-267h-4h-5t-4 1t-4.5 3.5t-2.5 6.5t-1 10v54q0 6 1 10t2.5 6.5t4.5 3.5t4 1h5h4h66v283zM103 655h425h4h5t4 -1t4.5 -3.5t2.5 -6.5t1 -10v-66q0 -6 -1 -10t-2.5 -6.5t-4.5 -3.5t-4 -1h-5h-4h-425
h-4h-5t-4 1t-4.5 3.5t-2.5 6.5t-1 10v66q0 6 1 10t2.5 6.5t4.5 3.5t4 1h5h4z" />
    <glyph glyph-name="l" unicode="l" horiz-adv-x="511" 
d="M289 12q0 -12 -12 -12h-58q-12 0 -12 12v449h-149q-12 0 -12 12v46q0 12 12 12h394q15 0 10 -15l-2 -44q-4 -11 -16 -11h-155v-449zM444 585h-386q-12 0 -12 12v46q0 12 12 12h394q15 0 10 -15l-2 -44q-4 -11 -16 -11z" />
    <glyph glyph-name="m" unicode="m" horiz-adv-x="593" 
d="M353 20q0 -20 -20 -20h-96q-20 0 -20 20v325h-133q-15 0 -15 15v90q0 15 15 15h425q6 0 9 -3.5t4 -9t1 -10.5t-0.5 -11t-0.5 -7l-2 -63q0 -16 -21 -16h-146v-325zM499 535h-415q-15 0 -15 15v90q0 15 15 15h425q6 0 9 -3.5t4 -9t1 -10.5t-0.5 -11t-0.5 -7l-2 -63
q0 -16 -21 -16z" />
    <glyph glyph-name="n" unicode="n" horiz-adv-x="714" 
d="M405 0h-96v481h-260v86h616v-86h-260v-481zM665 641h-616v86h616v-86z" />
    <glyph glyph-name="o" unicode="o" horiz-adv-x="780" 
d="M484 0h-188v357h-227v141h642v-141h-227v-357zM711 586h-642v141h642v-141z" />
    <glyph glyph-name="p" unicode="p" horiz-adv-x="657" 
d="M280 115v416h-79q-48 0 -66 -7q-59 -22 -65 -107h-19l8 155h541l7 -155h-19q-5 41 -14 58q-29 56 -107 56h-93v-416q0 -62 13 -76q19 -21 57 -21h23v-18h-280v18h23q42 0 60 25q10 16 10 72zM600 617h-541v45h541v-45z" />
    <glyph glyph-name="q" unicode="q" horiz-adv-x="709" 
d="M57 522h595v-179h-18q-15 63 -34 89q-19 27 -53 43q-18 9 -65 9h-49v-371q0 -49 5 -64q16 -31 67 -31h22v-18h-346v18h22q29 0 46 10q12 7 20 24q5 12 5 61v371h-47q-67 0 -98 -28q-43 -41 -53 -113h-19v179zM652 597h-595v65h595v-65z" />
    <glyph glyph-name="uni20B8" unicode="&#x20b8;" horiz-adv-x="672" 
d="M620 475h-237v-475h-95v475h-236v85h568v-85zM620 631h-568v85h568v-85z" />
  </font>
</defs>
</svg>
